<svg width="360" height="587" viewBox="0 0 360 587" fill="none" xmlns="http://www.w3.org/2000/svg">
<g opacity="0.2">
<path d="M71.774 531.651C72.4744 532.149 72.7693 532.443 73.4698 532.978C73.2302 533.125 73.1564 533.162 72.8799 533.328C72.6403 533.457 72.3638 533.42 72.1611 533.254L70.5205 531.872L70.7786 531.706C71.479 531.283 71.7002 531.596 71.774 531.651Z" fill="#E9D157"/>
<path d="M115.441 548.73C115.736 548.38 116.233 548.27 116.676 548.454C117.671 548.896 118.667 549.338 119.662 549.762C119.533 549.928 119.404 550.094 119.275 550.259C118.98 550.628 118.464 550.757 118.021 550.554C117.026 550.112 116.049 549.67 115.054 549.191C115.183 549.043 115.312 548.896 115.441 548.73Z" fill="#E4C239"/>
<path d="M124.215 552.544C124.547 552.102 125.118 551.936 125.616 552.139C126.722 552.563 127.828 552.986 128.952 553.41C128.805 553.613 128.676 553.815 128.528 554.018C128.215 554.479 127.625 554.645 127.109 554.442C126.003 554 124.897 553.558 123.791 553.115C123.938 552.913 124.068 552.728 124.215 552.544Z" fill="#EEDC81"/>
<path d="M111.902 553.613C112.068 553.355 112.437 553.299 112.805 553.484C113.579 553.889 114.372 554.276 115.165 554.681C115.091 554.81 115.017 554.921 114.943 555.031C114.778 555.308 114.409 555.363 114.04 555.16C113.248 554.755 112.473 554.35 111.699 553.926C111.755 553.834 111.828 553.723 111.902 553.613Z" fill="#EEDC81"/>
<path d="M103.792 557.371C103.828 557.316 103.902 557.316 103.976 557.353C104.123 557.445 104.492 557.648 104.658 557.74C104.64 557.758 104.621 557.795 104.603 557.813C104.566 557.869 104.492 557.869 104.418 557.832C104.271 557.74 103.902 557.519 103.736 557.426C103.755 557.408 103.773 557.39 103.792 557.371Z" fill="#EEDC81"/>
<path d="M103.165 548.988C103.312 548.767 103.644 548.73 103.976 548.915C104.676 549.32 105.395 549.725 106.114 550.131C106.04 550.241 105.985 550.333 105.911 550.444C105.764 550.683 105.432 550.702 105.1 550.518C104.381 550.112 103.681 549.688 102.98 549.283C103.036 549.191 103.091 549.099 103.165 548.988Z" fill="#EEDC81"/>
<path d="M121.045 558.016C121.23 557.758 121.598 557.684 121.949 557.85C122.704 558.2 123.46 558.569 124.234 558.919C124.161 559.048 124.068 559.158 123.995 559.287C123.81 559.564 123.442 559.637 123.091 559.472C122.336 559.103 121.58 558.735 120.824 558.366C120.88 558.237 120.972 558.127 121.045 558.016Z" fill="#EEDC81"/>
<path d="M106.611 544.622C106.98 544.235 107.57 544.124 108.049 544.364C108.989 544.843 109.929 545.303 110.888 545.746C110.777 545.856 110.685 545.985 110.574 546.096C110.206 546.501 109.616 546.612 109.118 546.372C108.178 545.911 107.238 545.432 106.298 544.935C106.408 544.843 106.519 544.732 106.611 544.622Z" fill="#E9CF4F"/>
<path d="M173.099 574.322C173.265 573.935 173.671 573.714 174.095 573.787C175.219 573.972 176.362 574.156 177.505 574.34C177.394 574.58 177.302 574.837 177.192 575.077C177.026 575.464 176.62 575.685 176.196 575.611C175.053 575.409 173.911 575.224 172.786 575.003C172.897 574.782 172.989 574.543 173.099 574.322Z" fill="#EEDC81"/>
<path d="M170.906 581.986C170.98 581.839 171.164 581.747 171.33 581.784C171.791 581.894 172.547 582.06 173.008 582.171C172.952 582.263 172.915 582.373 172.86 582.465C172.786 582.613 172.602 582.705 172.436 582.668C171.975 582.557 171.22 582.373 170.759 582.263C170.814 582.17 170.869 582.078 170.906 581.986Z" fill="#EEDC81"/>
<path d="M165.948 577.177C166.077 576.809 166.482 576.606 166.906 576.717C167.57 576.882 168.252 577.048 168.915 577.196C168.879 577.269 168.86 577.343 168.842 577.435C168.713 577.822 168.307 578.006 167.883 577.896C167.201 577.73 166.538 577.546 165.874 577.38C165.911 577.325 165.929 577.251 165.948 577.177Z" fill="#EEDC81"/>
<path d="M97.6349 540.145C98.2063 539.629 99.0358 539.537 99.7178 539.905C100.676 540.439 101.635 540.955 102.612 541.453C102.575 541.49 102.538 541.526 102.501 541.563C101.93 542.116 101.063 542.245 100.363 541.858C99.4044 541.324 98.4459 540.808 97.5059 540.255C97.5427 540.218 97.5796 540.182 97.6349 540.145Z" fill="#E3B935"/>
<path d="M79.9205 537.436C80.068 537.326 80.2892 537.307 80.4551 537.418C80.8606 537.694 82.0403 538.486 82.4643 538.763L82.2615 538.929C82.1141 539.058 81.8929 539.076 81.727 538.965C81.303 538.689 80.1417 537.878 79.7178 537.602L79.9205 537.436Z" fill="#E3B935"/>
<path d="M77.3405 540.403C77.3773 540.366 77.4326 540.366 77.4879 540.403C77.5985 540.476 78.0593 540.79 78.1699 540.863L78.1146 540.9C78.0778 540.937 78.0225 540.937 77.9672 540.9C77.8566 540.826 77.3958 540.513 77.2852 540.421L77.3405 540.403Z" fill="#E3B935"/>
<path d="M80.5654 544.788C80.5839 544.788 80.5839 544.788 80.6023 544.788C80.6207 544.806 80.7313 544.88 80.7682 544.898L80.7498 544.917C80.7313 544.917 80.7313 544.917 80.7129 544.917C80.6945 544.88 80.5839 544.806 80.5654 544.788Z" fill="#E3B935"/>
<path d="M97.3034 548.473C97.4692 548.325 97.7089 548.307 97.8932 548.417C98.3356 548.675 99.331 549.265 99.7734 549.523L99.589 549.688C99.4231 549.836 99.1835 549.873 98.9807 549.744C98.5384 549.486 97.543 548.896 97.1006 548.62L97.3034 548.473Z" fill="#E3B935"/>
<path d="M71.6816 538.486C71.7002 538.486 71.7002 538.486 71.7187 538.486C71.7557 538.505 71.8484 538.579 71.8669 538.597L71.8484 538.616C71.8298 538.616 71.8298 538.616 71.8113 538.616C71.7928 538.579 71.7002 538.523 71.6816 538.486Z" fill="#E4C239"/>
<path d="M94.8511 551.991C94.9064 551.936 94.9985 551.936 95.0538 551.973C95.2013 552.065 95.6806 552.36 95.828 552.452L95.7543 552.507C95.699 552.563 95.6068 552.563 95.5515 552.526C95.4041 552.434 94.9248 552.139 94.7773 552.047L94.8511 551.991Z" fill="#E3B935"/>
<path d="M89.3945 550.72C89.413 550.702 89.4314 550.702 89.4314 550.72C89.4683 550.739 89.5604 550.812 89.5973 550.831L89.5789 550.849C89.5604 550.868 89.542 550.868 89.542 550.849C89.5236 550.831 89.413 550.757 89.3945 550.72Z" fill="#E3B935"/>
<path d="M91.681 539.739C92.105 539.371 92.7501 539.334 93.2847 539.666C94.0589 540.126 94.8331 540.587 95.6257 541.029C95.5888 541.047 95.5704 541.084 95.5335 541.103C95.128 541.508 94.446 541.545 93.893 541.213C93.1188 540.753 92.3446 540.292 91.5889 539.813C91.6257 539.813 91.6442 539.776 91.681 539.739Z" fill="#E3B935"/>
<path d="M142.961 559.361C143.385 558.643 144.233 558.311 145.026 558.532C146.187 558.845 147.348 559.158 148.509 559.453C148.417 559.638 148.307 559.803 148.214 559.988C147.791 560.725 146.943 561.075 146.132 560.854C144.97 560.54 143.827 560.209 142.685 559.859C142.777 559.693 142.869 559.527 142.961 559.361Z" fill="#E9CF4F"/>
<path d="M140.086 565.865C140.307 565.441 140.805 565.294 141.321 565.478C142.077 565.754 142.832 566.031 143.588 566.307C143.533 566.417 143.496 566.51 143.441 566.62C143.238 567.062 142.722 567.21 142.187 567.007C141.432 566.712 140.676 566.417 139.938 566.123C139.994 566.049 140.031 565.957 140.086 565.865Z" fill="#E9CF4F"/>
<path d="M133.266 556.745C133.69 556.026 134.538 555.695 135.33 555.916C136.492 556.229 137.653 556.542 138.814 556.837C138.722 557.021 138.611 557.187 138.519 557.371C138.095 558.108 137.247 558.458 136.436 558.237C135.275 557.924 134.132 557.593 132.989 557.242C133.081 557.058 133.174 556.892 133.266 556.745Z" fill="#E9CF4F"/>
<path d="M130.316 562.143C130.5 561.756 130.961 561.646 131.458 561.867C132.177 562.18 132.915 562.493 133.652 562.788C133.615 562.88 133.578 562.972 133.523 563.064C133.357 563.451 132.878 563.58 132.362 563.359C131.624 563.046 130.905 562.714 130.187 562.401C130.242 562.309 130.279 562.235 130.316 562.143Z" fill="#E9CF4F"/>
<path d="M89.4321 534.857C89.8561 534.544 90.4275 534.507 90.8699 534.783C92.0128 535.465 93.174 536.147 94.3353 536.828C94.1694 536.957 94.0035 537.105 93.8376 537.234C93.4137 537.584 92.8238 537.62 92.363 537.344C91.2017 536.662 90.0589 535.962 88.916 535.262C89.0819 535.133 89.2662 534.986 89.4321 534.857Z" fill="#EEDC81"/>
<path d="M83.4967 534.249C83.7732 534.046 84.1419 534.028 84.4368 534.212C85.1741 534.673 86.3354 535.428 87.0727 535.889C86.9621 535.981 86.8515 536.054 86.7409 536.147C86.4644 536.368 86.0774 536.386 85.7824 536.202C85.0451 535.741 83.8838 534.967 83.1465 534.488C83.2755 534.433 83.3861 534.341 83.4967 534.249Z" fill="#EEDC81"/>
<path d="M94.5559 544.051C94.7771 543.867 95.1089 543.866 95.3854 544.032C96.0858 544.456 96.7863 544.861 97.4868 545.285C97.3946 545.359 97.3024 545.432 97.2287 545.506C97.0075 545.69 96.6573 545.709 96.3808 545.543C95.6803 545.119 94.9799 544.696 94.2979 544.272C94.3716 544.198 94.4637 544.124 94.5559 544.051Z" fill="#EEDC81"/>
<path d="M86.0775 538.8C86.2618 538.652 86.5568 538.671 86.8148 538.836C87.46 539.242 88.1052 539.647 88.7503 540.052C88.6766 540.108 88.6029 540.181 88.5291 540.237C88.3448 540.403 88.0314 540.384 87.7734 540.218C87.1282 539.813 86.483 539.389 85.8379 538.984C85.9301 538.929 86.0038 538.873 86.0775 538.8Z" fill="#EEDC81"/>
<path d="M86.0963 546.354C86.1516 546.317 86.2253 546.317 86.2991 546.372C86.465 546.483 86.8152 546.722 86.9995 546.833C86.9811 546.851 86.9627 546.869 86.9442 546.888C86.8889 546.925 86.8152 546.925 86.7415 546.888C86.5756 546.777 86.2253 546.538 86.041 546.427C86.0594 546.39 86.0779 546.372 86.0963 546.354Z" fill="#EEDC81"/>
<path d="M153.358 562.272C153.818 561.424 154.777 560.982 155.717 561.185C156.749 561.406 157.8 561.609 158.851 561.811C158.795 561.922 158.74 562.032 158.685 562.143C158.242 563.009 157.265 563.488 156.307 563.267C155.275 563.046 154.242 562.806 153.229 562.567C153.247 562.456 153.302 562.364 153.358 562.272Z" fill="#E9D157"/>
<path d="M121.635 547.735C122.077 547.183 122.814 546.98 123.478 547.22C124.639 547.662 125.819 548.104 126.999 548.546C126.833 548.767 126.667 548.988 126.501 549.209C126.077 549.799 125.303 550.002 124.639 549.744C123.459 549.283 122.298 548.822 121.155 548.343C121.321 548.159 121.469 547.938 121.635 547.735Z" fill="#E9CF4F"/>
<path d="M115.017 558.219C115.183 558.053 115.441 557.998 115.663 558.09C116.05 558.274 117.285 558.864 117.672 559.048C117.617 559.122 117.543 559.195 117.487 559.269C117.322 559.453 117.064 559.508 116.842 559.398C116.455 559.214 115.22 558.606 114.852 558.403C114.888 558.348 114.944 558.292 115.017 558.219Z" fill="#E9CF4F"/>
<path d="M106.224 553.576C106.372 553.428 106.593 553.41 106.759 553.502C107.072 553.668 108.105 554.239 108.436 554.405C108.381 554.46 108.326 554.515 108.271 554.571C108.123 554.718 107.902 554.755 107.718 554.663C107.404 554.497 106.372 553.926 106.059 553.742C106.114 553.686 106.169 553.631 106.224 553.576Z" fill="#E9CF4F"/>
<path d="M113.156 544.548C113.562 544.032 114.262 543.83 114.87 544.069C115.958 544.493 117.064 544.898 118.17 545.303C118.022 545.506 117.857 545.727 117.709 545.93C117.304 546.483 116.585 546.667 115.958 546.427C114.852 546.004 113.764 545.561 112.695 545.119C112.843 544.935 112.99 544.751 113.156 544.548Z" fill="#E9CF4F"/>
<path d="M104.75 540.513C105.155 539.997 105.856 539.795 106.464 540.034C107.552 540.458 108.658 540.863 109.764 541.269C109.616 541.471 109.45 541.692 109.303 541.895C108.897 542.448 108.178 542.632 107.552 542.392C106.446 541.969 105.358 541.526 104.289 541.084C104.455 540.9 104.602 540.697 104.75 540.513Z" fill="#E9CF4F"/>
<path d="M130.519 550.923C130.925 550.333 131.68 550.075 132.362 550.296C133.763 550.757 135.164 551.199 136.565 551.623C136.344 551.955 136.123 552.286 135.92 552.618C135.515 553.226 134.74 553.502 134.04 553.263C132.639 552.802 131.238 552.323 129.874 551.826C130.095 551.531 130.316 551.218 130.519 550.923Z" fill="#E9D157"/>
<path d="M185.836 576.588C186.076 575.98 186.702 575.593 187.366 575.667C188.38 575.777 189.394 575.869 190.426 575.961C190.371 576.09 190.315 576.219 190.278 576.367C190.039 576.993 189.412 577.38 188.73 577.306C187.716 577.196 186.702 577.085 185.707 576.956C185.744 576.809 185.799 576.698 185.836 576.588Z" fill="#E4C239"/>
<path d="M81.1744 529.643C81.5984 529.366 82.1514 529.366 82.5754 529.643C83.6813 530.343 84.7689 531.043 85.8749 531.743C85.709 531.854 85.5615 531.964 85.3956 532.075C84.9716 532.37 84.4002 532.388 83.9763 532.093C82.8703 531.393 81.7827 530.675 80.6768 529.956C80.8242 529.864 81.0086 529.753 81.1744 529.643Z" fill="#E3B935"/>
<path d="M75.0182 528.593C75.3131 528.408 75.7186 528.445 76.0689 528.666C76.9352 529.256 77.7463 529.827 78.6311 530.398C78.5205 530.472 78.4099 530.546 78.2993 530.619C78.0043 530.822 77.5804 530.804 77.2302 530.564C76.3638 529.974 75.5528 529.403 74.668 528.795C74.7786 528.74 74.8892 528.666 75.0182 528.593Z" fill="#E3B935"/>
<path d="M68.3999 534.009C68.4552 533.972 68.5289 533.991 68.6027 534.028C68.7686 534.138 69.211 534.47 69.3769 534.599C69.3584 534.617 69.34 534.617 69.3031 534.636C69.2478 534.673 69.1557 534.673 69.1004 534.617C68.9345 534.507 68.4921 534.157 68.3262 534.046C68.3446 534.028 68.3815 534.009 68.3999 534.009Z" fill="#E3B935"/>
<path d="M140.399 554.129C140.786 553.521 141.505 553.226 142.206 553.41C143.367 553.723 144.547 554.018 145.726 554.294C145.561 554.571 145.413 554.829 145.247 555.087C144.879 555.713 144.123 556.026 143.422 555.824C142.261 555.51 141.1 555.179 139.938 554.847C140.086 554.626 140.233 554.387 140.399 554.129Z" fill="#E4C239"/>
<path d="M164.214 564.023C164.583 563.267 165.394 562.825 166.242 562.954C167.624 563.157 169.025 563.341 170.445 563.525C170.297 563.82 170.168 564.133 170.021 564.428C169.67 565.202 168.822 565.662 167.975 565.533C166.574 565.312 165.191 565.091 163.827 564.852C163.938 564.575 164.067 564.299 164.214 564.023Z" fill="#E9D157"/>
<path d="M154.575 573.99C154.777 573.695 155.072 573.64 155.423 573.732C155.976 573.898 157.008 574.156 157.579 574.322C157.506 574.432 157.432 574.561 157.358 574.672C157.174 574.967 156.842 575.04 156.492 574.948C155.92 574.782 154.907 574.488 154.354 574.322C154.427 574.193 154.501 574.101 154.575 573.99Z" fill="#E9D157"/>
<path d="M148.178 575.317C148.307 575.151 148.491 575.132 148.676 575.206C148.989 575.317 149.689 575.538 150.021 575.648C149.966 575.722 149.929 575.777 149.874 575.851C149.745 576.017 149.56 576.054 149.376 575.98C149.063 575.869 148.362 575.63 148.049 575.519C148.086 575.445 148.123 575.372 148.178 575.317Z" fill="#E9D157"/>
<path d="M141.837 576.035C141.911 575.961 142.003 575.943 142.095 575.98C142.261 576.035 142.759 576.238 142.925 576.293C142.907 576.33 142.87 576.367 142.851 576.385C142.778 576.477 142.685 576.477 142.593 576.44C142.427 576.367 141.93 576.183 141.764 576.109C141.801 576.09 141.819 576.072 141.837 576.035Z" fill="#E9D157"/>
<path d="M146.224 580.678C146.243 580.66 146.261 580.66 146.28 580.66C146.317 580.678 146.427 580.715 146.464 580.733L146.446 580.752C146.427 580.77 146.409 580.77 146.39 580.77C146.354 580.752 146.243 580.715 146.206 580.697L146.224 580.678Z" fill="#EEDC81"/>
<path d="M135.847 576.33C135.865 576.312 135.884 576.312 135.902 576.33C135.939 576.348 136.031 576.385 136.068 576.404L136.049 576.422C136.031 576.44 136.013 576.44 135.994 576.422C135.957 576.404 135.865 576.348 135.847 576.33Z" fill="#E9D157"/>
<path d="M95.957 535.078C96.3994 534.709 97.0077 534.654 97.5054 534.93C98.7773 535.631 100.068 536.331 101.339 537.012C101.1 537.233 100.86 537.436 100.639 537.657C100.197 538.063 99.5699 538.136 99.0538 537.841C97.7819 537.141 96.4916 536.423 95.2197 535.704C95.4594 535.502 95.7174 535.281 95.957 535.078Z" fill="#E9D157"/>
<path d="M88.7319 543.148C88.861 543.056 89.0453 543.037 89.1928 543.129C89.5614 543.351 90.649 544.032 91.0176 544.253C90.9439 544.309 90.8702 544.364 90.7964 544.438C90.6674 544.548 90.4646 544.566 90.3172 544.474C89.9485 544.253 88.861 543.553 88.5107 543.332C88.566 543.258 88.6398 543.203 88.7319 543.148Z" fill="#E9D157"/>
<path d="M91.7736 547.625C91.8473 547.57 91.9579 547.57 92.0501 547.606C92.2713 547.735 93.0086 548.196 93.2298 548.325C93.1929 548.362 93.1376 548.399 93.1008 548.436C93.027 548.509 92.9164 548.509 92.8243 548.454C92.6031 548.325 91.8657 547.846 91.6445 547.717C91.6814 547.699 91.7183 547.662 91.7736 547.625Z" fill="#E9D157"/>
<path d="M100.566 552.968C100.639 552.894 100.768 552.894 100.86 552.95C101.1 553.079 101.782 553.484 102.022 553.631C101.985 553.668 101.93 553.705 101.893 553.742C101.801 553.816 101.69 553.834 101.598 553.779C101.358 553.65 100.676 553.226 100.437 553.097C100.473 553.042 100.51 553.005 100.566 552.968Z" fill="#E9D157"/>
<path d="M98.2803 556.376C98.2803 556.376 98.2988 556.376 98.3173 556.376C98.3358 556.395 98.447 556.45 98.4655 556.469C98.4655 556.469 98.447 556.469 98.447 556.488C98.447 556.488 98.4285 556.488 98.4099 556.488C98.4099 556.469 98.2988 556.413 98.2803 556.376C98.2803 556.395 98.2803 556.395 98.2803 556.376Z" fill="#E4C239"/>
<path d="M109.506 558.035C109.58 557.961 109.709 557.942 109.801 557.998C110.041 558.127 110.686 558.477 110.944 558.606C110.907 558.643 110.852 558.698 110.815 558.735C110.741 558.808 110.612 558.827 110.52 558.772C110.28 558.643 109.617 558.274 109.377 558.145C109.414 558.108 109.451 558.071 109.506 558.035Z" fill="#E9D157"/>
<path d="M107.294 561.756C107.313 561.756 107.313 561.738 107.331 561.756C107.368 561.775 107.442 561.83 107.479 561.83L107.461 561.849C107.442 561.849 107.442 561.867 107.424 561.849C107.387 561.83 107.294 561.793 107.294 561.756C107.276 561.756 107.276 561.756 107.294 561.756Z" fill="#E9D157"/>
<path d="M116.474 566.86C116.474 566.86 116.492 566.841 116.511 566.86C116.547 566.878 116.64 566.915 116.676 566.933L116.658 566.952C116.658 566.97 116.64 566.97 116.621 566.952C116.603 566.933 116.492 566.878 116.474 566.86Z" fill="#EEDC81"/>
<path d="M118.557 562.733C118.649 562.641 118.778 562.622 118.889 562.678C119.184 562.825 119.847 563.157 120.142 563.304C120.105 563.359 120.068 563.414 120.032 563.47C119.939 563.562 119.81 563.58 119.7 563.525C119.405 563.378 118.723 563.046 118.446 562.899C118.483 562.862 118.52 562.788 118.557 562.733Z" fill="#E9D157"/>
<path d="M127.92 567.191C128.012 567.099 128.178 567.062 128.307 567.118C128.639 567.265 129.395 567.615 129.726 567.744C129.69 567.799 129.653 567.892 129.597 567.947C129.505 568.057 129.358 568.094 129.229 568.02C128.897 567.873 128.141 567.542 127.791 567.376C127.846 567.32 127.865 567.247 127.92 567.191Z" fill="#E9D157"/>
<path d="M77.2839 532.922C77.4867 532.775 77.8185 532.812 78.1134 533.033C78.906 533.567 79.6987 534.12 80.4913 534.636C80.3807 534.728 80.2885 534.82 80.1779 534.912C79.9936 535.078 79.6434 535.041 79.33 534.82C78.5374 534.286 77.7448 533.733 76.9521 533.18C77.0627 533.088 77.1733 533.014 77.2839 532.922Z" fill="#E9D157"/>
<path d="M74.2805 535.944C74.3543 535.888 74.4833 535.907 74.5939 535.981C74.8888 536.183 75.4602 536.589 75.7552 536.791C75.7183 536.828 75.6814 536.865 75.6446 536.883C75.5708 536.939 75.4418 536.92 75.3312 536.847C75.0363 536.644 74.4648 536.239 74.1699 536.017C74.2068 536.017 74.2437 535.981 74.2805 535.944Z" fill="#E9D157"/>
<path d="M82.9982 541.95C83.0719 541.895 83.2009 541.913 83.3115 541.987C83.6065 542.19 84.2148 542.577 84.5097 542.761C84.4728 542.798 84.436 542.834 84.3991 542.871C84.3254 542.945 84.1963 542.927 84.0673 542.853C83.7539 542.65 83.1641 542.263 82.8691 542.061C82.9244 542.024 82.9613 541.987 82.9982 541.95Z" fill="#E9D157"/>
<path d="M88.2333 530.84C88.602 530.545 89.0996 530.49 89.5052 530.73C90.5559 531.319 91.6066 531.909 92.6757 532.48C92.4729 532.664 92.2701 532.83 92.0858 533.014C91.7171 533.346 91.201 533.401 90.7771 533.162C89.7264 532.572 88.6757 531.964 87.625 531.356C87.8093 531.172 88.0121 531.006 88.2333 530.84Z" fill="#E4C239"/>
<path d="M150.445 556.579C150.795 555.971 151.496 555.639 152.196 555.787C153.431 556.045 154.666 556.266 155.938 556.487C155.772 556.819 155.588 557.132 155.422 557.463C155.072 558.108 154.353 558.44 153.652 558.292C152.417 558.034 151.182 557.758 149.966 557.482C150.113 557.169 150.279 556.874 150.445 556.579Z" fill="#E9D157"/>
<path d="M205.984 583.092C206.15 582.631 206.592 582.318 207.09 582.355C208.159 582.41 209.228 582.465 210.297 582.52C210.242 582.705 210.168 582.87 210.113 583.055C209.947 583.534 209.486 583.828 208.989 583.81C207.92 583.755 206.85 583.681 205.8 583.607C205.874 583.423 205.929 583.257 205.984 583.092Z" fill="#E3B935"/>
<path d="M197.615 587.016C197.726 586.758 197.984 586.611 198.279 586.629C198.869 586.703 199.477 586.776 200.085 586.832C200.049 586.924 200.012 587.034 199.956 587.126C199.846 587.384 199.569 587.55 199.293 587.513C198.685 587.44 198.095 587.366 197.505 587.274C197.542 587.2 197.579 587.108 197.615 587.016Z" fill="#E3B935"/>
<path d="M72.7319 524.005C73.2112 523.765 73.7826 523.802 74.225 524.115C75.331 524.871 76.437 525.626 77.5429 526.363C77.3955 526.455 77.2296 526.547 77.0821 526.621C76.6029 526.897 75.9946 526.879 75.5338 526.566C74.4278 525.81 73.3218 525.055 72.2158 524.281C72.3817 524.171 72.566 524.097 72.7319 524.005Z" fill="#E9CF4F"/>
<path d="M65.9855 522.402C66.3726 522.236 66.8518 522.291 67.2205 522.568C68.179 523.249 69.1375 523.949 70.096 524.613C69.967 524.686 69.8564 524.742 69.7274 524.797C69.3403 525 68.8426 524.944 68.4371 524.65C67.4786 523.968 66.52 523.268 65.5615 522.568C65.709 522.531 65.838 522.476 65.9855 522.402Z" fill="#E9CF4F"/>
<path d="M53.4141 524.668C53.4325 524.668 53.4509 524.668 53.4509 524.668C53.4694 524.687 53.58 524.779 53.6168 524.797C53.6168 524.797 53.6168 524.797 53.5984 524.797C53.58 524.797 53.5615 524.797 53.5615 524.797C53.5431 524.779 53.4325 524.705 53.4141 524.668Z" fill="#E9CF4F"/>
<path d="M119.551 542.724C120.067 542.116 120.897 541.895 121.634 542.171C122.888 542.65 124.141 543.111 125.413 543.553C125.192 543.848 124.97 544.124 124.749 544.401C124.252 545.046 123.367 545.285 122.611 544.99C121.358 544.511 120.104 544.014 118.869 543.498C119.109 543.258 119.33 543 119.551 542.724Z" fill="#E9CF4F"/>
<path d="M128.548 546.04C129.027 545.414 129.838 545.156 130.594 545.396C131.81 545.782 133.045 546.151 134.28 546.519C134.078 546.833 133.856 547.127 133.654 547.422C133.193 548.085 132.345 548.38 131.571 548.122C130.354 547.717 129.137 547.312 127.921 546.888C128.124 546.593 128.326 546.317 128.548 546.04Z" fill="#E9CF4F"/>
<path d="M200.013 577.767C200.234 577.141 200.842 576.754 201.487 576.772C202.52 576.809 203.552 576.846 204.584 576.883C204.529 577.03 204.473 577.177 204.437 577.325C204.215 577.951 203.607 578.357 202.944 578.338C201.911 578.283 200.879 578.228 199.865 578.172C199.921 578.025 199.957 577.896 200.013 577.767Z" fill="#E9D157"/>
<path d="M177.966 579.757C178.187 579.315 178.666 579.075 179.164 579.149C179.92 579.278 180.915 579.443 181.689 579.572C181.634 579.683 181.579 579.775 181.524 579.886C181.302 580.328 180.805 580.586 180.325 580.494C179.551 580.365 178.593 580.18 177.837 580.033C177.874 579.941 177.911 579.849 177.966 579.757Z" fill="#E9D157"/>
<path d="M163.81 583.736C163.884 583.607 164.031 583.552 164.179 583.589C164.4 583.644 164.898 583.81 165.119 583.865C165.101 583.902 165.082 583.921 165.064 583.958C164.99 584.087 164.824 584.142 164.695 584.105C164.474 584.05 163.976 583.884 163.755 583.829C163.773 583.792 163.792 583.773 163.81 583.736Z" fill="#E9D157"/>
<path d="M176.104 587.071C176.178 586.942 176.325 586.869 176.473 586.905C176.694 586.942 177.192 587.071 177.431 587.127C177.413 587.163 177.395 587.182 177.376 587.219C177.302 587.348 177.155 587.421 177.007 587.385C176.786 587.329 176.289 587.219 176.067 587.163C176.067 587.127 176.086 587.108 176.104 587.071Z" fill="#E9D157"/>
<path d="M183.57 584.879C183.699 584.621 183.994 584.473 184.289 584.51C184.75 584.584 185.505 584.731 185.966 584.805C185.929 584.86 185.911 584.934 185.874 584.989C185.745 585.266 185.45 585.413 185.155 585.358C184.694 585.284 183.938 585.118 183.496 585.044C183.515 584.989 183.533 584.934 183.57 584.879Z" fill="#E9D157"/>
<path d="M191.459 581.857C191.662 581.397 192.16 581.12 192.676 581.175C193.468 581.268 194.261 581.36 195.072 581.452C195.017 581.562 194.998 581.618 194.943 581.728C194.74 582.207 194.243 582.483 193.726 582.41C192.934 582.318 192.141 582.207 191.349 582.097C191.385 582.004 191.404 581.968 191.459 581.857Z" fill="#E9D157"/>
<path d="M110.852 538.873C111.387 538.32 112.179 538.173 112.88 538.486C114.244 539.094 115.626 539.684 117.027 540.255C116.751 540.568 116.474 540.881 116.216 541.176C115.7 541.766 114.852 541.95 114.133 541.637C112.751 541.029 111.387 540.402 110.022 539.758C110.281 539.463 110.575 539.168 110.852 538.873Z" fill="#E3B935"/>
<path d="M176.012 565.773C176.418 564.87 177.34 564.299 178.335 564.391C179.699 564.502 181.063 564.594 182.446 564.667C182.335 564.944 182.224 565.202 182.095 565.478C181.708 566.418 180.75 566.989 179.736 566.897C178.372 566.768 177.026 566.639 175.681 566.491C175.81 566.252 175.902 566.012 176.012 565.773Z" fill="#EEDC81"/>
<path d="M162.354 557.279C164.05 557.519 165.746 557.721 167.478 557.906C167.202 558.458 166.944 559.011 166.686 559.545C166.372 560.19 165.69 560.559 164.99 560.448C163.276 560.209 161.58 559.951 159.921 559.656C160.179 559.159 160.437 558.661 160.695 558.145C160.99 557.537 161.654 557.187 162.354 557.279Z" fill="#E9D157"/>
<path d="M139.699 547.975C141.045 548.325 142.409 548.638 143.792 548.952C143.533 549.357 143.294 549.762 143.054 550.149C142.649 550.812 141.856 551.126 141.119 550.923C139.755 550.573 138.409 550.186 137.063 549.799C137.303 549.431 137.561 549.062 137.801 548.694C138.225 548.086 138.981 547.791 139.699 547.975Z" fill="#E3B935"/>
<path d="M112.99 562.383C113.1 562.438 113.69 562.751 113.801 562.806C113.764 562.843 113.745 562.862 113.708 562.899C113.653 562.954 113.579 562.954 113.524 562.935C113.413 562.88 112.842 562.549 112.731 562.493C112.768 562.475 112.787 562.438 112.824 562.42C112.86 562.364 112.934 562.346 112.99 562.383Z" fill="#E3B935"/>
<path d="M102.594 535.152C103.22 534.599 104.124 534.47 104.861 534.857C105.985 535.41 107.11 535.944 108.234 536.478C108.05 536.644 107.884 536.828 107.7 536.994C107.073 537.602 106.151 537.749 105.359 537.363C104.234 536.81 103.128 536.239 102.004 535.649C102.207 535.502 102.409 535.336 102.594 535.152Z" fill="#E9CF4F"/>
<path d="M194.317 572.221C194.612 571.466 195.331 570.968 196.142 571.005C197.321 571.042 198.52 571.061 199.718 571.061C199.644 571.263 199.57 571.484 199.497 571.687C199.22 572.461 198.464 572.958 197.635 572.921C196.437 572.885 195.275 572.829 194.096 572.756C194.169 572.59 194.243 572.405 194.317 572.221Z" fill="#E9CF4F"/>
<path d="M180.251 571.116C180.417 570.655 180.86 570.36 181.357 570.379C182.721 570.416 184.085 570.452 185.468 570.452C185.32 570.839 185.191 571.226 185.044 571.613C184.878 572.074 184.436 572.369 183.956 572.35C182.574 572.313 181.21 572.24 179.846 572.166C179.975 571.816 180.104 571.466 180.251 571.116Z" fill="#E4C239"/>
<path d="M168.381 569.052C168.657 568.536 169.21 568.242 169.782 568.334C171.072 568.518 172.381 568.702 173.708 568.868C173.542 569.181 173.395 569.494 173.229 569.826C172.971 570.342 172.399 570.637 171.809 570.545C170.501 570.342 169.192 570.139 167.92 569.918C168.086 569.623 168.233 569.347 168.381 569.052Z" fill="#E4C239"/>
<path d="M161.377 572.129C161.653 571.632 162.261 571.503 162.814 571.595C163.625 571.724 164.51 572.037 165.34 572.148C165.266 572.277 165.192 572.424 165.119 572.553C164.86 573.051 164.234 573.161 163.662 573.051C162.851 572.903 161.966 572.627 161.174 572.479C161.248 572.369 161.321 572.258 161.377 572.129Z" fill="#E4C239"/>
<path d="M156.972 566.989C157.359 566.381 158.078 566.067 158.778 566.233C159.81 566.473 160.843 566.694 161.893 566.897C161.783 567.062 161.691 567.228 161.58 567.412C161.193 568.039 160.456 568.352 159.755 568.186C158.723 567.947 157.709 567.689 156.695 567.449C156.787 567.283 156.88 567.136 156.972 566.989Z" fill="#E4C239"/>
<path d="M150.557 569.2C150.778 568.776 151.22 568.629 151.699 568.794C152.4 569.034 153.285 569.236 154.022 569.458C153.967 569.568 153.911 569.697 153.838 569.808C153.616 570.231 153.1 570.36 152.603 570.195C151.884 569.955 151.091 569.771 150.391 569.513C150.446 569.402 150.501 569.31 150.557 569.2Z" fill="#E4C239"/>
<path d="M144.086 570.655C144.252 570.361 144.565 570.324 144.897 570.453C145.395 570.637 146.077 570.821 146.575 571.005C146.538 571.079 146.482 571.171 146.446 571.245C146.28 571.54 145.911 571.558 145.579 571.429C145.082 571.245 144.455 571.061 143.976 570.858C144.012 570.784 144.049 570.711 144.086 570.655Z" fill="#E4C239"/>
<path d="M146.298 564.078C146.63 563.58 147.238 563.359 147.81 563.507C148.658 563.728 149.506 563.93 150.372 564.133C150.28 564.262 150.188 564.409 150.095 564.538C149.764 565.054 149.137 565.275 148.565 565.128C147.718 564.907 146.888 564.667 146.059 564.428C146.132 564.317 146.206 564.188 146.298 564.078Z" fill="#E4C239"/>
<path d="M136.51 561.443C136.842 560.946 137.45 560.724 138.022 560.872C138.87 561.093 139.717 561.296 140.584 561.498C140.492 561.627 140.399 561.775 140.307 561.904C139.976 562.42 139.349 562.641 138.777 562.493C137.929 562.272 137.1 562.033 136.271 561.793C136.363 561.683 136.436 561.554 136.51 561.443Z" fill="#E4C239"/>
<path d="M122.077 567.247C122.151 567.173 122.261 567.154 122.372 567.191C122.519 567.265 123.017 567.504 123.164 567.578C123.146 567.597 123.128 567.615 123.109 567.633C123.035 567.707 122.925 567.726 122.814 567.689C122.667 567.615 122.169 567.357 122.04 567.302C122.04 567.283 122.058 567.265 122.077 567.247Z" fill="#E4C239"/>
<path d="M127.072 557.832C127.459 557.371 128.086 557.206 128.639 557.427C129.45 557.74 130.28 558.035 131.109 558.329C130.999 558.458 130.906 558.587 130.796 558.716C130.409 559.177 129.764 559.361 129.211 559.14C128.4 558.827 127.589 558.495 126.796 558.182C126.888 558.053 126.98 557.942 127.072 557.832Z" fill="#E4C239"/>
<path d="M123.994 562.751C124.179 562.549 124.474 562.493 124.732 562.604C125.1 562.77 126.003 563.175 126.372 563.322C126.317 563.378 126.262 563.433 126.225 563.488C126.04 563.691 125.727 563.765 125.487 563.636C125.119 563.47 124.234 563.046 123.865 562.88C123.902 562.843 123.957 562.807 123.994 562.751Z" fill="#E4C239"/>
<path d="M133.764 567.431C133.93 567.21 134.225 567.136 134.483 567.228C134.87 567.357 135.791 567.707 136.178 567.836C136.123 567.892 136.086 567.965 136.031 568.02C135.865 568.242 135.57 568.334 135.294 568.223C134.907 568.094 134.003 567.744 133.616 567.597C133.69 567.541 133.727 567.486 133.764 567.431Z" fill="#E9CF4F"/>
<path d="M118.022 553.723C118.372 553.299 118.962 553.152 119.478 553.336C120.234 553.613 120.989 553.889 121.764 554.165C121.671 554.276 121.579 554.405 121.469 554.515C121.118 554.958 120.529 555.105 119.994 554.902C119.238 554.608 118.501 554.313 117.764 554.018C117.837 553.926 117.93 553.815 118.022 553.723Z" fill="#E4C239"/>
<path d="M109.395 549.522C109.745 549.172 110.28 549.099 110.704 549.301C111.349 549.615 111.994 549.928 112.657 550.223C112.565 550.315 112.473 550.407 112.381 550.517C112.031 550.867 111.496 550.96 111.054 550.739C110.409 550.425 109.763 550.094 109.137 549.762C109.229 549.688 109.303 549.615 109.395 549.522Z" fill="#E4C239"/>
<path d="M100.216 545.303C100.566 544.953 101.101 544.88 101.525 545.082C102.17 545.395 102.815 545.709 103.479 546.003C103.387 546.096 103.294 546.188 103.202 546.298C102.852 546.648 102.317 546.74 101.875 546.519C101.23 546.206 100.585 545.874 99.958 545.543C100.05 545.469 100.142 545.395 100.216 545.303Z" fill="#E4C239"/>
<path d="M149.32 550.075C150.85 550.37 152.38 550.628 153.929 550.886C153.652 551.402 153.357 551.899 153.081 552.397C152.694 553.097 151.883 553.465 151.09 553.318C149.56 553.023 148.03 552.692 146.537 552.341C146.814 551.881 147.09 551.42 147.367 550.941C147.791 550.26 148.565 549.928 149.32 550.075Z" fill="#E9CF4F"/>
<path d="M79.1096 525.258C79.8469 524.834 80.7686 524.871 81.469 525.331C82.5935 526.068 83.7179 526.787 84.8607 527.487C84.7501 527.561 84.6395 527.635 84.5289 527.708C83.7732 528.187 82.8147 528.187 82.0773 527.708C80.9529 526.99 79.8285 526.253 78.7041 525.516C78.8331 525.424 78.9806 525.35 79.1096 525.258Z" fill="#E9CF4F"/>
<path d="M71.3854 520.007C71.8462 519.749 72.4361 519.767 72.8785 520.062C73.9476 520.762 75.0167 521.444 76.1042 522.107L75.5144 522.476C75.0536 522.77 74.4453 522.77 73.9845 522.476C72.8969 521.775 71.8278 521.075 70.7402 520.357C70.9614 520.246 71.1642 520.136 71.3854 520.007Z" fill="#E3B935"/>
<path d="M59.9767 520.541C60.1794 520.43 60.4375 520.467 60.6218 520.596C61.0642 520.928 62.502 521.997 62.9444 522.31L62.6863 522.457C62.4836 522.568 62.2255 522.568 62.0227 522.42C61.5804 522.089 60.1426 521.002 59.7002 520.67C59.7739 520.633 59.8661 520.596 59.9767 520.541Z" fill="#E3B935"/>
<path d="M50.023 519.97C50.0783 519.952 50.152 519.952 50.1888 519.989C50.2994 520.081 50.9999 520.633 51.1105 520.707L51.0368 520.744C50.9815 520.781 50.9077 520.762 50.8709 520.725C50.7603 520.633 50.0598 520.081 49.9492 519.989C49.9861 519.989 50.0045 519.989 50.023 519.97Z" fill="#E3B935"/>
<path d="M64.068 518.054C64.7132 517.814 65.432 517.907 65.985 518.312C67.0173 519.067 68.068 519.804 69.1002 520.541C69.008 520.578 68.9343 520.615 68.8421 520.652C68.1786 520.947 67.4228 520.873 66.8329 520.449C65.8007 519.694 64.7685 518.957 63.7178 518.183C63.8468 518.128 63.9574 518.091 64.068 518.054Z" fill="#EEDC81"/>
<path d="M94.1887 530.601C94.8892 530.066 95.8477 530.011 96.6219 530.435C97.8753 531.117 99.1104 531.798 100.364 532.443C100.161 532.627 99.9583 532.793 99.7371 532.978C99.0366 533.586 98.0228 533.678 97.2118 533.235C95.9583 532.554 94.7233 531.854 93.4883 531.135C93.7095 530.951 93.9491 530.767 94.1887 530.601Z" fill="#EEDC81"/>
<path d="M174.5 558.551C176.03 558.643 177.597 558.735 179.164 558.79C178.998 559.177 178.832 559.545 178.666 559.932C178.187 561.019 177.062 561.701 175.864 561.609C174.316 561.48 172.786 561.351 171.274 561.185C171.44 560.854 171.588 560.504 171.754 560.172C172.251 559.103 173.339 558.477 174.5 558.551Z" fill="#E4C239"/>
<path d="M222.316 583.663C222.482 583.11 222.998 582.741 223.57 582.741C224.768 582.741 225.984 582.723 227.219 582.705C227.164 582.907 227.09 583.11 227.035 583.313C226.869 583.865 226.353 584.234 225.782 584.252C224.565 584.252 223.349 584.252 222.15 584.234C222.187 584.05 222.243 583.865 222.316 583.663Z" fill="#E9D157"/>
<path d="M159.736 551.549C161.45 551.752 163.183 551.936 164.934 552.083C164.639 552.655 164.363 553.226 164.068 553.779C163.588 554.718 162.575 555.252 161.524 555.123C159.791 554.902 158.095 554.644 156.418 554.368C156.694 553.852 156.971 553.336 157.247 552.82C157.745 551.936 158.722 551.439 159.736 551.549Z" fill="#E4C239"/>
<path d="M188.971 566.804C189.395 565.773 190.39 565.109 191.496 565.109C192.787 565.128 194.077 565.128 195.404 565.109C195.312 565.33 195.238 565.552 195.146 565.791C194.741 566.86 193.708 567.541 192.565 567.505C191.275 567.468 190.003 567.431 188.731 567.376C188.824 567.173 188.897 566.989 188.971 566.804Z" fill="#E4C239"/>
<path d="M129.193 539.776C130.686 540.237 132.198 540.679 133.728 541.084C133.433 541.471 133.156 541.876 132.88 542.245C132.106 543.313 130.742 543.756 129.488 543.35C127.995 542.871 126.521 542.374 125.046 541.858C125.341 541.489 125.617 541.139 125.912 540.771C126.686 539.794 127.977 539.408 129.193 539.776Z" fill="#E4C239"/>
<path d="M120.27 536.994C121.598 537.492 122.943 537.971 124.289 538.431C123.975 538.8 123.681 539.168 123.367 539.537C122.796 540.237 121.837 540.495 120.989 540.181C119.644 539.684 118.335 539.15 117.008 538.615C117.321 538.265 117.635 537.915 117.966 537.565C118.556 536.902 119.459 536.699 120.27 536.994Z" fill="#E3B935"/>
<path d="M215.127 578.32C215.422 577.435 216.233 576.827 217.173 576.809C218.427 576.772 219.698 576.735 220.97 576.698L220.823 577.14C220.528 578.043 219.698 578.67 218.758 578.67C217.487 578.688 216.251 578.707 214.998 578.707L215.127 578.32Z" fill="#E3B935"/>
<path d="M138.243 542.595C139.515 542.908 140.787 543.185 142.096 543.461C141.856 543.829 141.616 544.198 141.377 544.566C140.787 545.488 139.662 545.93 138.593 545.654C137.321 545.322 136.068 544.99 134.833 544.622C135.073 544.29 135.312 543.94 135.552 543.59C136.16 542.742 137.229 542.356 138.243 542.595Z" fill="#E4C239"/>
<path d="M86.2061 525.829C86.925 525.387 87.8282 525.387 88.5471 525.81C89.7636 526.529 90.9618 527.247 92.1784 527.948C91.9572 528.095 91.7544 528.261 91.5332 528.408C90.8143 528.924 89.8558 528.961 89.1001 528.5C87.8835 527.782 86.6853 527.026 85.4688 526.271C85.7084 526.142 85.948 525.995 86.2061 525.829Z" fill="#EEDC81"/>
<path d="M68.622 526.934C68.9169 526.805 69.3777 526.897 69.8017 527.211C70.5021 527.727 71.2026 528.224 71.8846 528.722C71.7924 528.777 71.7003 528.814 71.6265 528.869C71.3316 529.035 70.8523 528.943 70.41 528.629C69.7095 528.114 69.009 527.598 68.3086 527.063C68.4008 527.026 68.5114 526.99 68.622 526.934Z" fill="#EEDC81"/>
<path d="M65.3586 529.551C65.4692 529.496 65.6351 529.532 65.801 529.643C66.0591 529.827 66.7227 530.325 66.9807 530.509C66.9439 530.527 66.907 530.546 66.8886 530.564C66.778 530.638 66.5937 530.601 66.4278 530.472C66.1697 530.288 65.5061 529.79 65.248 529.588C65.2849 529.588 65.3218 529.569 65.3586 529.551Z" fill="#EEDC81"/>
<path d="M59.4233 527.284C59.4786 527.266 59.5524 527.284 59.6261 527.34C59.7551 527.432 60.1607 527.745 60.2897 527.837C60.2713 527.837 60.2528 527.856 60.2344 527.856C60.1791 527.892 60.0869 527.874 60.0132 527.819C59.8842 527.727 59.4786 527.413 59.3496 527.303C59.3865 527.303 59.4049 527.303 59.4233 527.284Z" fill="#EEDC81"/>
<path d="M112.271 533.696C113.506 534.23 114.741 534.746 115.994 535.244C115.773 535.483 115.552 535.723 115.331 535.962C114.52 536.828 113.248 537.086 112.16 536.607C110.925 536.073 109.709 535.502 108.492 534.93C108.732 534.709 108.971 534.47 109.211 534.23C110.022 533.475 111.22 533.254 112.271 533.696Z" fill="#E3B935"/>
<path d="M147.791 544.308C149.321 544.566 150.851 544.806 152.417 545.009C152.141 545.469 151.864 545.948 151.606 546.39C150.887 547.606 149.505 548.251 148.123 547.993C146.611 547.698 145.1 547.404 143.606 547.072C143.865 546.648 144.141 546.225 144.418 545.801C145.118 544.677 146.464 544.087 147.791 544.308Z" fill="#E9CF4F"/>
<path d="M170.741 552.526C172.566 552.618 174.409 552.673 176.289 552.71C175.994 553.373 175.699 554.018 175.404 554.663C174.962 555.639 173.93 556.266 172.86 556.192C171.017 556.081 169.192 555.934 167.404 555.768C167.699 555.179 167.976 554.589 168.271 554C168.713 553.042 169.69 552.47 170.741 552.526Z" fill="#E9CF4F"/>
<path d="M208.989 572.055C209.229 571.374 209.855 570.895 210.593 570.876C212.104 570.821 213.634 570.747 215.182 570.655C215.053 571.042 214.924 571.411 214.795 571.798C214.556 572.498 213.911 572.977 213.173 572.995C211.643 573.05 210.132 573.069 208.639 573.087C208.749 572.756 208.86 572.406 208.989 572.055Z" fill="#E3B935"/>
<path d="M55.8665 511.495C56.2904 511.384 56.7697 511.476 57.1199 511.753C58.2259 512.6 59.3319 513.429 60.4379 514.258C60.2351 514.332 60.0323 514.387 59.8111 514.461C59.3687 514.609 58.8711 514.516 58.5024 514.24C57.3964 513.411 56.2904 512.563 55.166 511.698C55.3872 511.624 55.6268 511.569 55.8665 511.495Z" fill="#E3B935"/>
<path d="M41.4506 506.004C41.6718 505.949 41.9114 506.004 42.0957 506.152C42.6672 506.594 44.1602 507.792 44.7132 508.234C44.6026 508.271 44.492 508.307 44.3814 508.326C44.1418 508.399 43.9022 508.344 43.6994 508.197C43.128 507.755 41.6349 506.557 41.0635 506.097C41.2109 506.078 41.3215 506.041 41.4506 506.004Z" fill="#E3B935"/>
<path d="M43.9404 510.555C44.1248 510.518 44.3275 510.555 44.4934 510.684C44.9727 511.071 46.2814 512.121 46.7607 512.49C46.6685 512.526 46.5764 512.545 46.4842 512.582C46.2814 512.637 46.0787 512.6 45.9128 512.471C45.4335 512.084 44.1248 511.034 43.6455 510.647C43.7192 510.61 43.8298 510.573 43.9404 510.555Z" fill="#E3B935"/>
<path d="M186.335 559.122C187.993 559.122 189.689 559.085 191.404 559.03C191.164 559.638 190.924 560.227 190.685 560.817C190.427 561.48 189.782 561.904 189.063 561.904C187.367 561.904 185.708 561.867 184.049 561.812C184.27 561.277 184.51 560.724 184.731 560.19C185.026 559.545 185.634 559.122 186.335 559.122Z" fill="#E3B935"/>
<path d="M159.515 578.651C159.847 578.743 160.842 579.038 161.192 579.112C161.118 579.222 161.026 579.314 160.953 579.425C160.86 579.536 160.713 579.591 160.584 579.554C160.252 579.462 159.257 579.149 158.943 579.057C159.017 578.964 159.091 578.872 159.165 578.78C159.22 578.651 159.367 578.614 159.515 578.651Z" fill="#E3B935"/>
<path d="M152.731 579.941C152.897 579.996 153.487 580.217 153.671 580.254C153.635 580.31 153.579 580.365 153.542 580.42C153.487 580.475 153.413 580.512 153.34 580.475C153.155 580.42 152.584 580.199 152.418 580.144C152.455 580.089 152.492 580.052 152.547 579.996C152.584 579.941 152.658 579.904 152.731 579.941Z" fill="#E3B935"/>
<path d="M157.285 584.768C157.322 584.787 157.432 584.824 157.451 584.824C157.451 584.842 157.432 584.842 157.432 584.86C157.432 584.879 157.414 584.879 157.395 584.879C157.359 584.86 157.248 584.824 157.229 584.824L157.248 584.805C157.266 584.768 157.266 584.768 157.285 584.768Z" fill="#E3B935"/>
<path d="M138.169 571.263C138.446 571.374 139.367 571.742 139.662 571.853C139.607 571.945 139.552 572.055 139.496 572.129C139.404 572.295 139.312 572.258 139.109 572.184C138.814 572.074 137.874 571.705 137.598 571.576C137.653 571.484 137.708 571.355 137.764 571.282C137.874 571.153 138.058 571.208 138.169 571.263Z" fill="#E3B935"/>
<path d="M132.013 571.724C132.142 571.779 132.621 572 132.75 572.056C132.713 572.092 132.695 572.148 132.677 572.185C132.621 572.258 132.584 572.24 132.511 572.203C132.382 572.148 131.884 571.927 131.755 571.871C131.792 571.834 131.81 571.779 131.829 571.742C131.884 571.669 131.958 571.705 132.013 571.724Z" fill="#E3B935"/>
<path d="M126.022 571.705C126.041 571.724 126.151 571.761 126.17 571.779L126.151 571.798C126.133 571.816 126.133 571.816 126.114 571.798C126.096 571.779 125.985 571.742 125.967 571.724L125.985 571.705C125.985 571.687 126.004 571.705 126.022 571.705Z" fill="#E3B935"/>
<path d="M103.534 529.551C105.045 530.287 106.557 531.024 108.068 531.706C107.644 532.093 107.239 532.48 106.833 532.848C106.225 533.401 105.34 533.53 104.584 533.18C103.073 532.425 101.561 531.669 100.05 530.877C100.492 530.527 100.935 530.158 101.377 529.79C101.985 529.293 102.833 529.2 103.534 529.551Z" fill="#E9D157"/>
<path d="M157.635 545.709C159.275 545.875 160.934 546.004 162.612 546.114C162.298 546.704 161.985 547.275 161.69 547.846C161.063 549.025 159.791 549.707 158.464 549.541C156.824 549.338 155.201 549.117 153.616 548.878C153.911 548.362 154.206 547.828 154.519 547.293C155.165 546.206 156.381 545.58 157.635 545.709Z" fill="#E4C239"/>
<path d="M203.293 566.27C203.588 565.46 204.344 564.907 205.192 564.852C206.722 564.76 208.289 564.667 209.874 564.52C209.726 564.944 209.579 565.368 209.431 565.791C209.136 566.62 208.362 567.192 207.496 567.247C205.948 567.321 204.399 567.376 202.888 567.413C203.017 567.026 203.164 566.639 203.293 566.27Z" fill="#E4C239"/>
<path d="M78.1692 520.523C78.8697 520.173 79.7176 520.228 80.3812 520.652C81.7083 521.518 83.054 522.365 84.3811 523.194C84.0862 523.36 83.7913 523.526 83.5148 523.692C82.7959 524.116 81.8927 524.097 81.1922 523.636C79.8466 522.771 78.5194 521.886 77.1738 521.002C77.4872 520.854 77.819 520.689 78.1692 520.523Z" fill="#E9D157"/>
<path d="M62.7233 513.595C63.4422 513.374 64.2348 513.485 64.8431 513.945C66.0044 514.793 67.1656 515.622 68.3085 516.451C68.1426 516.525 67.9767 516.58 67.8108 516.654C67.055 516.948 66.2256 516.838 65.562 516.359C64.4007 515.511 63.2394 514.664 62.0781 513.798C62.3178 513.724 62.5205 513.65 62.7233 513.595Z" fill="#EEDC81"/>
<path d="M95.9206 525.589C97.3031 526.345 98.6856 527.082 100.068 527.8C99.7362 528.058 99.4229 528.316 99.0911 528.556C98.2616 529.219 97.1003 529.311 96.1602 528.795C94.7778 528.04 93.4137 527.266 92.0312 526.474C92.3999 526.234 92.7501 525.976 93.1372 525.718C93.9667 525.166 95.0358 525.11 95.9206 525.589Z" fill="#E4C239"/>
<path d="M128.031 534.175C129.635 534.654 131.238 535.096 132.879 535.502C132.436 536.073 132.013 536.644 131.57 537.197C130.777 538.228 129.413 538.671 128.16 538.284C126.556 537.786 124.971 537.27 123.404 536.718C123.847 536.202 124.289 535.667 124.75 535.133C125.561 534.193 126.833 533.825 128.031 534.175Z" fill="#E9D157"/>
<path d="M240.953 583C241.1 582.484 241.561 582.115 242.095 582.078C243.478 581.986 244.86 581.876 246.261 581.765C246.188 582.041 246.114 582.318 246.022 582.594C245.874 583.11 245.413 583.497 244.86 583.534C243.459 583.626 242.077 583.718 240.713 583.792C240.805 583.515 240.879 583.257 240.953 583Z" fill="#E9D157"/>
<path d="M136.823 536.46C138.482 536.828 140.141 537.178 141.837 537.491C141.395 538.118 140.971 538.744 140.565 539.352C139.773 540.495 138.353 541.047 137.008 540.734C135.367 540.329 133.727 539.905 132.104 539.444C132.528 538.873 132.971 538.302 133.413 537.713C134.206 536.644 135.533 536.183 136.823 536.46Z" fill="#E9D157"/>
<path d="M183.368 552.894C184.898 552.857 186.446 552.784 188.013 552.692C187.828 553.152 187.626 553.613 187.441 554.055C186.907 555.345 185.653 556.192 184.252 556.192C182.722 556.211 181.229 556.192 179.736 556.155C179.921 555.75 180.105 555.345 180.271 554.939C180.824 553.723 182.022 552.931 183.368 552.894Z" fill="#E3B935"/>
<path d="M168.142 546.262C170.059 546.317 171.994 546.335 173.966 546.298C173.598 547.072 173.229 547.828 172.879 548.583C172.271 549.854 170.962 550.647 169.561 550.573C167.625 550.481 165.727 550.352 163.847 550.204C164.197 549.523 164.547 548.841 164.897 548.159C165.524 546.962 166.796 546.225 168.142 546.262Z" fill="#EEDC81"/>
<path d="M119.663 531.78C120.935 532.241 122.225 532.683 123.515 533.088C123.165 533.493 122.815 533.899 122.465 534.304C121.746 535.115 120.603 535.41 119.589 535.041C118.317 534.562 117.045 534.065 115.773 533.549C116.142 533.18 116.511 532.793 116.898 532.406C117.635 531.669 118.704 531.43 119.663 531.78Z" fill="#E3B935"/>
<path d="M146.316 538.542C147.736 538.763 149.192 538.947 150.648 539.113C150.316 539.647 149.984 540.182 149.671 540.716C148.915 541.95 147.478 542.614 146.058 542.356C144.639 542.098 143.238 541.84 141.855 541.545C142.187 541.066 142.519 540.568 142.851 540.071C143.607 538.91 144.952 538.321 146.316 538.542Z" fill="#E9D157"/>
<path d="M232.97 577.104C233.154 576.477 233.707 576.035 234.352 575.98C235.79 575.851 237.228 575.722 238.703 575.574C238.611 575.888 238.518 576.201 238.426 576.533C238.242 577.159 237.689 577.62 237.025 577.675C235.569 577.785 234.131 577.896 232.712 577.988C232.804 577.675 232.896 577.399 232.97 577.104Z" fill="#E4C239"/>
<path d="M200.97 558.44C202.5 558.311 204.048 558.163 205.615 557.998C205.505 558.311 205.376 558.624 205.265 558.937C204.712 560.448 203.33 561.498 201.726 561.59C200.196 561.682 198.684 561.756 197.191 561.793C197.302 561.535 197.394 561.259 197.505 561.001C198.076 559.564 199.422 558.569 200.97 558.44Z" fill="#EEDC81"/>
<path d="M111.423 528.408C112.805 528.998 114.188 529.551 115.589 530.103C115.165 530.527 114.741 530.951 114.335 531.356C113.598 532.093 112.473 532.314 111.533 531.89C110.151 531.282 108.768 530.674 107.404 530.03C107.847 529.643 108.308 529.237 108.768 528.832C109.487 528.187 110.519 528.021 111.423 528.408Z" fill="#EEDC81"/>
<path d="M46.8705 504.549C47.3682 504.475 47.9027 504.604 48.3083 504.936C49.4143 505.802 50.5202 506.668 51.6078 507.534C51.405 507.57 51.2207 507.607 51.0179 507.663C50.4834 507.773 49.9304 507.644 49.5064 507.313C48.4004 506.447 47.2945 505.562 46.1885 504.678C46.4097 504.623 46.6493 504.586 46.8705 504.549Z" fill="#E4C239"/>
<path d="M34.1336 502.541C34.2995 502.522 34.4838 502.559 34.6128 502.67C35.0552 503.038 36.4745 504.199 36.9169 504.549C36.8248 504.567 36.7326 504.586 36.622 504.604C36.4377 504.641 36.2718 504.586 36.1243 504.475C35.6819 504.107 34.2626 502.946 33.8018 502.577C33.9308 502.559 34.023 502.541 34.1336 502.541Z" fill="#E4C239"/>
<path d="M40.4005 512.195C40.4558 512.195 40.5295 512.213 40.5848 512.25C40.7507 512.398 41.2853 512.821 41.4512 512.969C41.4143 512.969 41.3775 512.987 41.3406 512.987C41.2669 513.006 41.2116 512.987 41.1563 512.932C40.9904 512.803 40.4558 512.361 40.2715 512.213C40.3084 512.213 40.3636 512.195 40.4005 512.195Z" fill="#E4C239"/>
<path d="M226.813 569.568C228.785 569.366 230.776 569.126 232.804 568.868C232.638 569.402 232.472 569.937 232.306 570.471C232.048 571.3 231.31 571.908 230.444 572C228.435 572.203 226.444 572.369 224.49 572.535C224.638 572.056 224.804 571.558 224.951 571.079C225.228 570.25 225.965 569.66 226.813 569.568Z" fill="#EEDC81"/>
<path d="M155.552 539.352C157.432 539.5 159.349 539.61 161.285 539.684C160.805 540.55 160.326 541.416 159.865 542.245C159.183 543.461 157.856 544.18 156.474 544.032C154.575 543.848 152.713 543.608 150.852 543.35C151.312 542.595 151.773 541.821 152.252 541.029C152.934 539.887 154.206 539.242 155.552 539.352Z" fill="#E9D157"/>
<path d="M85.3213 521.057C86.1877 520.578 87.2383 520.597 88.1047 521.112C89.4687 521.942 90.8512 522.734 92.2153 523.526C91.865 523.747 91.5332 523.968 91.183 524.189C90.2982 524.76 89.1554 524.797 88.2522 524.245C86.8697 523.415 85.5056 522.568 84.1416 521.72C84.5103 521.499 84.9158 521.278 85.3213 521.057Z" fill="#E4C239"/>
<path d="M70.0598 515.161C70.8893 514.848 71.8294 514.977 72.5483 515.475C73.7649 516.322 74.9815 517.151 76.198 517.962C75.9768 518.072 75.7556 518.164 75.516 518.275C74.6497 518.662 73.6543 518.588 72.8617 518.036C71.6451 517.188 70.4285 516.34 69.2119 515.475C69.5068 515.382 69.7833 515.272 70.0598 515.161Z" fill="#E3B935"/>
<path d="M179.405 546.188C181.525 546.096 183.663 545.948 185.838 545.746C185.432 546.685 185.027 547.625 184.621 548.528C184.087 549.762 182.87 550.591 181.525 550.628C179.386 550.683 177.285 550.702 175.202 550.683C175.589 549.873 175.976 549.044 176.363 548.196C176.935 547.017 178.096 546.243 179.405 546.188Z" fill="#EEDC81"/>
<path d="M103.773 524.705C105.229 525.405 106.704 526.105 108.197 526.769C107.754 527.137 107.33 527.506 106.906 527.874C105.911 528.722 104.492 528.906 103.312 528.335C101.837 527.616 100.381 526.861 98.9248 526.105C99.4041 525.755 99.8833 525.387 100.363 525.037C101.34 524.281 102.667 524.171 103.773 524.705Z" fill="#E9D157"/>
<path d="M195.846 551.992C197.818 551.789 199.809 551.549 201.837 551.273C201.56 552.01 201.265 552.747 200.989 553.484C200.509 554.737 199.366 555.603 198.039 555.713C196.049 555.879 194.095 556.008 192.159 556.1C192.417 555.455 192.675 554.81 192.952 554.147C193.449 552.931 194.555 552.12 195.846 551.992Z" fill="#E3B935"/>
<path d="M221.689 563.175C223.311 562.954 224.952 562.733 226.629 562.457C226.556 562.696 226.464 562.954 226.39 563.194C225.874 564.796 224.473 565.957 222.814 566.141C221.192 566.326 219.57 566.491 217.984 566.639C218.058 566.436 218.113 566.252 218.187 566.049C218.685 564.502 220.049 563.378 221.689 563.175Z" fill="#E9CF4F"/>
<path d="M54.3538 506.907C54.9621 506.778 55.6072 506.926 56.0865 507.313C57.469 508.363 58.833 509.413 60.1971 510.426C59.8653 510.518 59.5519 510.61 59.2201 510.684C58.5749 510.85 57.8929 510.721 57.3768 510.334C55.9943 509.284 54.5934 508.215 53.2109 507.128C53.598 507.055 53.9851 506.981 54.3538 506.907Z" fill="#E9CF4F"/>
<path d="M48.8421 509.081C49.137 509.026 49.4503 509.1 49.69 509.284C50.3536 509.8 51.7729 510.924 52.4549 511.44C52.289 511.476 52.1416 511.532 51.9757 511.568C51.6623 511.642 51.3305 511.587 51.0725 511.384C50.3904 510.868 48.9711 509.726 48.2891 509.192C48.4734 509.155 48.6577 509.118 48.8421 509.081Z" fill="#E9CF4F"/>
<path d="M50.8336 513.448C51.1101 513.393 51.3866 513.466 51.5894 513.632C52.1792 514.093 53.617 515.235 54.2253 515.677C54.0778 515.714 53.9304 515.751 53.8013 515.788C53.5249 515.861 53.2299 515.806 52.9903 515.622C52.382 515.161 50.9442 514.019 50.3359 513.54C50.5018 513.503 50.6677 513.485 50.8336 513.448Z" fill="#E9CF4F"/>
<path d="M165.744 539.905C167.716 539.923 169.726 539.887 171.753 539.794C171.255 540.789 170.758 541.766 170.279 542.724C169.689 543.903 168.472 544.64 167.163 544.603C165.173 544.548 163.219 544.456 161.283 544.327C161.744 543.461 162.223 542.595 162.721 541.692C163.292 540.568 164.472 539.905 165.744 539.905Z" fill="#E3B935"/>
<path d="M135.662 530.306C137.542 530.693 139.459 531.061 141.394 531.375C140.676 532.37 139.975 533.328 139.293 534.286C138.629 535.207 137.505 535.631 136.399 535.391C134.482 534.967 132.583 534.488 130.722 533.991C131.422 533.125 132.141 532.241 132.86 531.338C133.524 530.472 134.611 530.103 135.662 530.306Z" fill="#E9CF4F"/>
<path d="M127.441 528.519C129.026 528.961 130.611 529.366 132.233 529.753C131.625 530.49 131.035 531.227 130.445 531.927C129.726 532.812 128.547 533.18 127.459 532.849C125.874 532.369 124.288 531.872 122.722 531.356C123.33 530.693 123.938 530.011 124.583 529.329C125.321 528.537 126.408 528.224 127.441 528.519Z" fill="#E9D157"/>
<path d="M77.7083 516.396C78.6484 515.99 79.7175 516.083 80.5838 516.635C81.6714 517.335 82.7405 518.017 83.828 518.699C83.6069 518.809 83.3857 518.938 83.1645 519.049C82.1875 519.565 81.0262 519.509 80.1046 518.901C79.017 518.201 77.9295 517.483 76.8604 516.746C77.1368 516.654 77.4133 516.525 77.7083 516.396Z" fill="#E3B935"/>
<path d="M145.136 532.038C146.851 532.259 148.565 532.443 150.316 532.591C149.745 533.457 149.192 534.322 148.657 535.17C147.828 536.441 146.353 537.123 144.842 536.883C143.127 536.607 141.431 536.312 139.772 535.981C140.325 535.207 140.878 534.433 141.45 533.622C142.279 532.443 143.699 531.854 145.136 532.038Z" fill="#E4C239"/>
<path d="M215.256 556.616C217.376 556.284 219.533 555.934 221.708 555.529C221.486 556.174 221.265 556.837 221.063 557.463C220.583 558.919 219.311 559.988 217.8 560.19C215.662 560.485 213.542 560.743 211.459 560.964C211.662 560.411 211.846 559.84 212.049 559.287C212.528 557.869 213.763 556.837 215.256 556.616Z" fill="#EEDC81"/>
<path d="M29.1737 493.034C29.6161 493.034 30.0401 493.2 30.3719 493.476C31.5516 494.471 32.7313 495.447 33.8926 496.405C33.6714 496.405 33.4686 496.424 33.2474 496.424C32.7866 496.442 32.3442 496.295 31.9755 495.982C30.7958 495.005 29.6161 494.01 28.418 492.997C28.6945 493.034 28.9341 493.034 29.1737 493.034Z" fill="#E9D157"/>
<path d="M23.5707 493.66C23.8103 493.66 24.0315 493.752 24.2158 493.9C24.8426 494.434 26.0776 495.466 26.7043 496C26.5937 496 26.4647 496 26.3541 496.018C26.096 496.018 25.8564 495.945 25.6721 495.779C25.0453 495.245 23.8103 494.213 23.1836 493.66C23.2942 493.642 23.4417 493.642 23.5707 493.66Z" fill="#E9D157"/>
<path d="M31.6439 497.898C31.9573 497.898 32.2522 498.027 32.4919 498.229C33.3398 498.948 34.1877 499.648 35.0172 500.348C34.8697 500.348 34.7222 500.348 34.5563 500.366C34.2246 500.366 33.9112 500.256 33.6531 500.053C32.8052 499.353 31.9757 498.635 31.1094 497.916C31.2937 497.879 31.4596 497.879 31.6439 497.898Z" fill="#E9D157"/>
<path d="M26.8512 498.782C26.9802 498.782 27.1093 498.837 27.2014 498.911C27.5517 499.206 28.3443 499.869 28.6945 500.164C28.6392 500.164 28.5655 500.164 28.5102 500.164C28.3811 500.164 28.2521 500.127 28.1415 500.035C27.7913 499.74 26.9987 499.077 26.6484 498.782C26.7037 498.764 26.7775 498.782 26.8512 498.782Z" fill="#E9D157"/>
<path d="M30.1886 503.738C30.2623 503.738 30.3361 503.775 30.3914 503.812C30.5941 503.978 31.0734 504.383 31.2762 504.549C31.2393 504.549 31.2024 504.549 31.1656 504.549C31.0918 504.549 30.9997 504.53 30.9444 504.475C30.7416 504.309 30.2623 503.904 30.0596 503.72C30.1149 503.738 30.1517 503.738 30.1886 503.738Z" fill="#E9D157"/>
<path d="M33.7654 508.731C33.7838 508.731 33.8022 508.731 33.8022 508.75C33.8391 508.786 33.9313 508.86 33.9681 508.897H33.9497C33.9313 508.897 33.9128 508.897 33.9128 508.879C33.876 508.842 33.7838 508.768 33.7285 508.731C33.7469 508.731 33.7654 508.731 33.7654 508.731Z" fill="#E9D157"/>
<path d="M37.2301 507.442C37.3591 507.442 37.4882 507.497 37.5803 507.57C37.9306 507.865 38.631 508.418 38.9812 508.694C38.9259 508.694 38.8522 508.694 38.7969 508.694C38.6679 508.694 38.5389 508.658 38.4283 508.565C38.078 508.271 37.3776 507.718 37.0273 507.423C37.0826 507.442 37.1564 507.442 37.2301 507.442Z" fill="#E9D157"/>
<path d="M95.9206 520.707C97.3768 521.499 98.8515 522.273 100.326 523.028C99.8284 523.397 99.3307 523.747 98.833 524.097C97.9114 524.76 96.6948 524.834 95.6994 524.3C94.2248 523.489 92.7502 522.66 91.2939 521.812C91.8469 521.481 92.3999 521.131 92.9713 520.781C93.8561 520.228 94.9805 520.209 95.9206 520.707Z" fill="#E3B935"/>
<path d="M119.183 525.645C120.952 526.271 122.74 526.842 124.547 527.395C123.809 528.187 123.091 528.98 122.372 529.735C121.597 530.564 120.418 530.859 119.349 530.472C117.561 529.827 115.773 529.145 114.021 528.427C114.759 527.727 115.533 526.99 116.307 526.253C117.081 525.534 118.187 525.295 119.183 525.645Z" fill="#E3B935"/>
<path d="M62.2062 509.394C62.9988 509.192 63.8283 509.357 64.4919 509.837C65.6163 510.647 66.7223 511.458 67.8283 512.25C67.6071 512.324 67.3674 512.397 67.1462 512.471C66.3168 512.747 65.4135 512.6 64.6946 512.084C63.5702 511.274 62.4643 510.444 61.3398 509.597C61.6163 509.542 61.9113 509.468 62.2062 509.394Z" fill="#E3B935"/>
<path d="M192.344 545.027C194.519 544.751 196.731 544.419 198.961 544.032C198.593 544.953 198.243 545.856 197.892 546.741C197.21 548.454 195.643 549.652 193.819 549.854C191.625 550.075 189.487 550.26 187.349 550.407C187.68 549.633 188.012 548.841 188.362 548.03C189.063 546.372 190.574 545.248 192.344 545.027Z" fill="#E9D157"/>
<path d="M262.187 580.788C262.316 580.328 262.685 579.978 263.164 579.923C264.934 579.701 266.722 579.443 268.528 579.186C268.418 579.628 268.307 580.052 268.196 580.494C268.086 580.954 267.68 581.304 267.201 581.378C265.395 581.618 263.625 581.839 261.855 582.041C261.966 581.599 262.077 581.194 262.187 580.788Z" fill="#E9D157"/>
<path d="M154.519 532.756C156.436 532.849 158.39 532.922 160.362 532.922C159.754 533.972 159.164 535.004 158.574 535.999C157.726 537.455 156.122 538.321 154.445 538.173C152.528 538.007 150.629 537.805 148.749 537.565C149.32 536.662 149.929 535.723 150.537 534.783C151.385 533.438 152.915 532.664 154.519 532.756Z" fill="#E4C239"/>
<path d="M176.897 539.555C178.962 539.408 181.045 539.205 183.165 538.929C182.667 539.997 182.188 541.066 181.727 542.098C181.137 543.406 179.847 544.29 178.409 544.364C176.326 544.474 174.298 544.53 172.289 544.53C172.75 543.608 173.211 542.669 173.672 541.711C174.28 540.476 175.515 539.666 176.897 539.555Z" fill="#E9CF4F"/>
<path d="M252.38 575.224C252.638 574.285 253.412 573.585 254.371 573.437C256.196 573.161 258.021 572.866 259.882 572.534C259.79 572.884 259.679 573.253 259.587 573.603C259.329 574.561 258.537 575.261 257.56 575.409C255.716 575.685 253.892 575.925 252.104 576.164C252.196 575.851 252.288 575.538 252.38 575.224Z" fill="#E9D157"/>
<path d="M37.6356 496.94C38.1149 496.921 38.5942 497.069 38.9628 497.382C40.161 498.358 41.3407 499.335 42.5388 500.293C42.2808 500.311 42.0227 500.348 41.7646 500.367C41.2485 500.422 40.7508 500.256 40.3453 499.943C39.1471 498.966 37.949 497.971 36.7324 496.977C37.0274 496.977 37.3223 496.958 37.6356 496.94Z" fill="#E9D157"/>
<path d="M39.4973 501.546C39.866 501.546 40.2162 501.656 40.5111 501.896C41.4328 502.651 42.3544 503.407 43.2577 504.143C43.0549 504.162 42.8706 504.18 42.6678 504.199C42.2807 504.236 41.8936 504.107 41.5803 503.849C40.6586 503.093 39.737 502.338 38.7969 501.564C39.0365 501.564 39.2577 501.546 39.4973 501.546Z" fill="#E9D157"/>
<path d="M210.28 550.057C212.344 549.688 214.427 549.265 216.566 548.804C216.289 549.578 216.031 550.352 215.755 551.125C215.257 552.544 214.022 553.594 212.547 553.834C210.464 554.165 208.418 554.46 206.391 554.7C206.63 554.036 206.87 553.373 207.128 552.692C207.644 551.31 208.842 550.315 210.28 550.057Z" fill="#E3B935"/>
<path d="M111.478 522.789C113.1 523.471 114.741 524.116 116.4 524.724C115.681 525.387 114.98 526.032 114.298 526.677C113.487 527.432 112.307 527.653 111.275 527.211C109.616 526.511 107.976 525.774 106.354 525.018C107.091 524.429 107.847 523.821 108.602 523.194C109.432 522.55 110.538 522.402 111.478 522.789Z" fill="#E3B935"/>
<path d="M246.408 566.933C248.215 566.62 250.058 566.27 251.938 565.883C251.846 566.215 251.754 566.547 251.662 566.897C251.312 568.186 250.224 569.144 248.915 569.365C247.072 569.679 245.266 569.955 243.478 570.213C243.551 569.937 243.643 569.642 243.717 569.365C244.086 568.094 245.118 567.155 246.408 566.933Z" fill="#E4C239"/>
<path d="M274.242 586.426C275.053 586.334 276.657 586.169 277.486 586.04C277.412 586.261 277.339 586.482 277.265 586.703C277.154 587.034 276.878 587.274 276.528 587.311C275.698 587.403 274.094 587.55 273.302 587.624C273.375 587.421 273.431 587.219 273.505 587.016C273.634 586.684 273.91 586.463 274.242 586.426Z" fill="#E4C239"/>
<path d="M164.455 533.07C166.391 533.014 168.363 532.922 170.372 532.775C169.782 533.899 169.211 535.004 168.64 536.073C167.884 537.528 166.372 538.45 164.75 538.431C162.815 538.413 160.898 538.357 158.999 538.265C159.552 537.289 160.123 536.312 160.713 535.299C161.469 533.936 162.888 533.106 164.455 533.07Z" fill="#E3B935"/>
<path d="M88.0674 516.175C89.6526 517.133 91.2563 518.072 92.8784 518.975C92.1964 519.38 91.5328 519.767 90.8692 520.154C90.095 520.615 89.1365 520.615 88.3623 520.154C86.7402 519.178 85.0996 518.183 83.4775 517.151C84.2149 516.801 84.9522 516.432 85.7264 516.064C86.4821 515.714 87.3669 515.751 88.0674 516.175Z" fill="#E9D157"/>
<path d="M45.5991 499.98C46.2443 499.924 46.9079 500.109 47.424 500.532C48.8249 501.656 50.2258 502.762 51.6083 503.849C51.2581 503.904 50.9079 503.959 50.5761 504.014C49.8756 504.125 49.1567 503.941 48.6037 503.499C47.1844 502.393 45.7835 501.251 44.3457 500.109C44.7697 500.053 45.1752 500.016 45.5991 499.98Z" fill="#EEDC81"/>
<path d="M238.648 560.172C240.934 559.711 243.238 559.214 245.597 558.679C245.432 559.251 245.266 559.822 245.1 560.393C244.639 561.959 243.349 563.138 241.745 563.433C239.422 563.875 237.137 564.262 234.906 564.63C235.054 564.151 235.201 563.654 235.349 563.157C235.809 561.627 237.081 560.485 238.648 560.172Z" fill="#E9D157"/>
<path d="M69.9672 510.74C70.8704 510.463 71.8474 510.611 72.6031 511.145C73.8934 512.048 75.2022 512.932 76.4925 513.816C76.1054 513.964 75.7183 514.13 75.3496 514.277C74.4096 514.664 73.322 514.535 72.4925 513.964C71.1838 513.061 69.875 512.121 68.5479 511.182C69.0271 511.016 69.4879 510.887 69.9672 510.74Z" fill="#E4C239"/>
<path d="M57.7638 515.972C58.2246 515.917 58.5196 515.935 58.9988 516.303C59.8099 516.93 60.8606 517.741 61.6716 518.367C61.4688 518.404 61.2845 518.459 61.1002 518.496C60.6209 518.607 60.326 518.662 59.8099 518.257C58.9988 517.612 57.8744 516.727 57.0449 516.064C57.2661 516.027 57.5058 516.009 57.7638 515.972Z" fill="#E4C239"/>
<path d="M53.4508 518.091C53.672 518.054 53.801 518.072 54.0407 518.238C54.4278 518.533 55.589 519.436 55.9761 519.73C55.884 519.749 55.7918 519.767 55.6996 519.786C55.4784 519.841 55.331 519.878 55.0729 519.675C54.6858 519.38 53.4877 518.422 53.1006 518.127C53.2296 518.127 53.3402 518.109 53.4508 518.091Z" fill="#E4C239"/>
<path d="M47.037 515.419C47.1476 515.401 47.2213 515.401 47.3319 515.493C47.5347 515.64 48.4195 516.34 48.6038 516.488C48.5485 516.506 48.5116 516.506 48.4748 516.525C48.3642 516.543 48.2904 516.562 48.1614 516.469C47.9586 516.322 47.0739 515.604 46.8711 515.438C46.9264 515.438 46.9817 515.419 47.037 515.419Z" fill="#E4C239"/>
<path d="M43.829 517.022C43.8474 517.022 43.8474 517.022 43.8658 517.022C43.8843 517.04 44.0317 517.151 44.0502 517.169H44.0317C44.0133 517.169 44.0133 517.169 43.9949 517.169C43.9764 517.151 43.829 517.04 43.8105 517.022H43.829Z" fill="#E4C239"/>
<path d="M56.3082 522.678C56.4557 522.66 56.5294 522.66 56.6953 522.77C56.9534 522.955 57.8197 523.636 58.0778 523.821C58.0225 523.839 57.9672 523.857 57.9119 523.857C57.7644 523.894 57.6723 523.913 57.5064 523.802C57.2483 523.618 56.3635 522.899 56.1055 522.715C56.1608 522.697 56.2345 522.678 56.3082 522.678Z" fill="#E4C239"/>
<path d="M62.6307 525.092C62.8151 525.055 62.9441 525.055 63.1469 525.203C63.4971 525.442 64.474 526.179 64.8058 526.419C64.7321 526.437 64.6399 526.455 64.5662 526.474C64.3634 526.529 64.2528 526.566 64.0132 526.4C63.663 526.142 62.6676 525.387 62.3174 525.129C62.428 525.129 62.5386 525.11 62.6307 525.092Z" fill="#E4C239"/>
<path d="M62.6679 531.798C62.6863 531.798 62.6863 531.798 62.7047 531.798C62.7231 531.817 62.8338 531.891 62.8522 531.909H62.8338C62.8153 531.909 62.8153 531.909 62.7969 531.909C62.76 531.891 62.6678 531.798 62.6494 531.78C62.6678 531.817 62.6679 531.817 62.6679 531.798Z" fill="#E4C239"/>
<path d="M188.455 538.026C191.017 537.639 193.616 537.16 196.27 536.607C195.662 538.044 195.091 539.463 194.501 540.845C193.929 542.245 192.639 543.24 191.127 543.443C188.547 543.793 186.003 544.051 183.496 544.272C184.049 543.037 184.602 541.784 185.174 540.495C185.8 539.168 187.017 538.247 188.455 538.026Z" fill="#E4C239"/>
<path d="M104.086 519.712C105.469 520.375 106.869 521.002 108.27 521.628C107.644 522.126 107.017 522.623 106.409 523.102C105.561 523.766 104.399 523.913 103.422 523.434C102.003 522.752 100.602 522.034 99.2197 521.315C99.8833 520.873 100.565 520.412 101.266 519.933C102.114 519.362 103.183 519.288 104.086 519.712Z" fill="#E3B935"/>
<path d="M206.409 542.908C208.436 542.485 210.501 542.005 212.584 541.471C212.289 542.3 211.994 543.129 211.699 543.922C211.017 545.819 209.358 547.183 207.367 547.551C205.377 547.92 203.404 548.233 201.469 548.491C201.745 547.791 202.003 547.091 202.28 546.39C202.962 544.603 204.529 543.314 206.409 542.908Z" fill="#E3B935"/>
<path d="M174.924 532.425C177.044 532.204 179.201 531.909 181.394 531.559C180.767 532.885 180.159 534.175 179.551 535.428C178.869 536.847 177.505 537.805 175.938 537.934C173.818 538.099 171.717 538.192 169.652 538.247C170.242 537.123 170.832 535.962 171.459 534.783C172.141 533.457 173.45 532.591 174.924 532.425Z" fill="#E4C239"/>
<path d="M232.711 553.539C234.61 553.097 236.527 552.618 238.481 552.102C238.333 552.581 238.186 553.042 238.057 553.521C237.522 555.308 236.048 556.616 234.223 557.003C232.343 557.39 230.481 557.758 228.638 558.09C228.748 557.703 228.877 557.316 229.006 556.948C229.541 555.234 230.96 553.944 232.711 553.539Z" fill="#E9CF4F"/>
<path d="M54.133 503.057C54.8519 502.964 55.5892 503.149 56.1606 503.591C57.3219 504.475 58.4647 505.36 59.626 506.226C59.3127 506.299 58.9993 506.354 58.7044 506.428C57.9302 506.594 57.1191 506.41 56.4924 505.931C55.3311 505.028 54.1514 504.125 52.9717 503.204C53.3588 503.167 53.7459 503.112 54.133 503.057Z" fill="#E9D157"/>
<path d="M9.43276 478.81C9.69082 478.847 9.93045 478.957 10.1148 479.142C11.3129 480.192 12.5111 481.224 13.6908 482.237C13.4327 482.2 13.1747 482.163 12.9166 482.126C12.6401 482.09 12.382 481.979 12.1793 481.795C10.9811 480.763 9.78298 479.713 8.56641 478.663C8.87977 478.718 9.15626 478.773 9.43276 478.81Z" fill="#E4C239"/>
<path d="M19.3495 494.508C19.4048 494.508 19.4601 494.545 19.497 494.581C19.755 494.802 20.1052 495.116 20.3633 495.337C20.308 495.337 20.2527 495.318 20.1974 495.318C20.1421 495.318 20.0868 495.281 20.0499 495.245C19.7919 495.023 19.4417 494.71 19.1836 494.489C19.2389 494.489 19.2942 494.489 19.3495 494.508Z" fill="#E4C239"/>
<path d="M23.073 499.685C23.0914 499.685 23.0914 499.685 23.1099 499.703C23.1652 499.74 23.2573 499.832 23.3126 499.869C23.2942 499.869 23.2942 499.869 23.2758 499.869C23.2573 499.869 23.2573 499.869 23.2389 499.851C23.1836 499.814 23.0914 499.722 23.0361 499.685C23.0361 499.685 23.0546 499.685 23.073 499.685Z" fill="#E4C239"/>
<path d="M18.6682 483.914C19 483.951 19.3318 484.098 19.5899 484.319C20.9908 485.517 22.3917 486.714 23.7742 487.875C23.424 487.857 23.0737 487.82 22.7419 487.801C22.3733 487.783 22.0415 487.635 21.765 487.396C20.3641 486.198 18.9632 485.001 17.5254 483.766C17.8941 483.822 18.2811 483.858 18.6682 483.914Z" fill="#E4C239"/>
<path d="M80.8061 511.79C82.207 512.711 83.6264 513.595 85.0273 514.48C84.4006 514.774 83.7923 515.051 83.184 515.327C82.3545 515.714 81.3776 515.64 80.6034 515.143C79.1656 514.203 77.7278 513.245 76.29 512.287C76.9721 512.029 77.6909 511.771 78.4098 511.513C79.2025 511.237 80.0872 511.329 80.8061 511.79Z" fill="#E3B935"/>
<path d="M96.6029 515.659C98.2066 516.525 99.8102 517.354 101.432 518.164C100.584 518.717 99.7734 519.251 98.9807 519.786C98.1144 520.357 97.0084 520.412 96.0868 519.915C94.4462 519.03 92.8057 518.091 91.1836 517.151C92.0684 516.672 92.9716 516.175 93.9117 515.659C94.7596 515.198 95.7734 515.198 96.6029 515.659Z" fill="#E4C239"/>
<path d="M226.15 546.519C228.528 545.911 230.943 545.23 233.394 544.493C233.099 545.414 232.823 546.317 232.528 547.219C231.993 548.896 230.629 550.204 228.897 550.61C226.482 551.181 224.122 551.697 221.8 552.176C222.058 551.402 222.316 550.61 222.592 549.836C223.145 548.178 224.491 546.943 226.15 546.519Z" fill="#E9CF4F"/>
<path d="M27.9945 488.778C28.4185 488.815 28.8056 488.962 29.1374 489.238C30.3908 490.289 31.6258 491.32 32.8424 492.352C32.5106 492.352 32.1973 492.352 31.8655 492.334C31.4231 492.334 30.9807 492.168 30.6489 491.873C29.3954 490.823 28.142 489.773 26.8701 488.704C27.2388 488.723 27.6074 488.759 27.9945 488.778Z" fill="#E9D157"/>
<path d="M20.8976 488.759C21.1557 488.778 21.4137 488.888 21.6165 489.054C22.4091 489.717 24.0865 491.136 24.8607 491.799C24.6579 491.799 24.4367 491.799 24.234 491.799C23.9575 491.799 23.681 491.689 23.4598 491.504C22.6672 490.841 20.9898 489.404 20.1787 488.722C20.4183 488.722 20.658 488.741 20.8976 488.759Z" fill="#E9D157"/>
<path d="M15.6641 489.183C15.7747 489.183 15.8853 489.238 15.9774 489.312C16.3092 489.607 17.4889 490.62 17.8207 490.896C17.7286 490.896 17.6364 490.896 17.5627 490.896C17.4336 490.896 17.323 490.841 17.2309 490.767C16.8991 490.473 15.7194 489.459 15.3691 489.165C15.4613 489.165 15.5535 489.165 15.6641 489.183Z" fill="#EEDC81"/>
<path d="M185.947 530.73C188.491 530.251 191.09 529.68 193.726 529.016C192.989 530.73 192.251 532.406 191.551 534.028C190.98 535.354 189.781 536.294 188.362 536.533C185.781 536.957 183.256 537.289 180.786 537.547C181.468 536.091 182.169 534.617 182.887 533.088C183.477 531.835 184.602 530.969 185.947 530.73Z" fill="#E9D157"/>
<path d="M201.689 535.594C204.288 534.967 206.924 534.267 209.615 533.457C209.044 534.967 208.491 536.441 207.938 537.878C207.367 539.389 206.076 540.513 204.509 540.845C201.874 541.416 199.293 541.895 196.768 542.319C197.284 541.047 197.818 539.758 198.353 538.431C198.943 537.012 200.178 535.962 201.689 535.594Z" fill="#E3B935"/>
<path d="M62.3172 504.917C63.1467 504.752 64.0314 504.954 64.7135 505.452C66.0959 506.465 67.4784 507.478 68.8609 508.455C68.3448 508.602 67.8471 508.731 67.3494 508.879C66.4462 509.137 65.4877 508.952 64.7319 508.4C63.331 507.368 61.9117 506.318 60.5107 505.249C61.1006 505.157 61.7089 505.028 62.3172 504.917Z" fill="#EEDC81"/>
<path d="M287.255 577.141C287.421 576.459 287.956 575.925 288.656 575.796C290.555 575.427 292.453 575.04 294.407 574.616C294.315 575.003 294.223 575.39 294.131 575.777C293.965 576.477 293.412 577.012 292.711 577.141C290.776 577.509 288.877 577.859 286.997 578.209C287.089 577.859 287.163 577.491 287.255 577.141Z" fill="#EEDC81"/>
<path d="M275.678 571.411C275.973 570.25 276.895 569.347 278.056 569.071C279.9 568.665 281.78 568.223 283.678 567.781C283.605 568.057 283.531 568.334 283.476 568.629C283.199 569.826 282.241 570.747 281.042 571.005C279.162 571.411 277.319 571.779 275.494 572.148C275.568 571.89 275.623 571.65 275.678 571.411Z" fill="#EEDC81"/>
<path d="M300.767 583.35C300.859 582.889 301.228 582.539 301.688 582.465C302.997 582.244 304.306 582.005 305.651 581.765C305.596 581.986 305.541 582.207 305.504 582.447C305.412 582.907 305.043 583.257 304.582 583.331C303.255 583.571 301.946 583.792 300.638 583.994C300.675 583.755 300.711 583.552 300.767 583.35Z" fill="#E9CF4F"/>
<path d="M267.606 562.346C269.947 561.756 272.343 561.148 274.776 560.485C274.629 561.038 274.5 561.59 274.352 562.143C274.021 563.47 272.988 564.483 271.661 564.815C269.246 565.386 266.887 565.92 264.564 566.417C264.693 565.938 264.823 565.459 264.952 564.98C265.283 563.672 266.297 562.677 267.606 562.346Z" fill="#E3B935"/>
<path d="M36.5291 492.481C37.1742 492.499 37.8194 492.721 38.3171 493.144C39.7917 494.36 41.2664 495.576 42.7226 496.756C42.2986 496.774 41.8747 496.792 41.4691 496.811C40.7503 496.848 40.0682 496.608 39.5152 496.166C38.0222 494.95 36.5291 493.716 35.0176 492.463C35.5153 492.463 36.013 492.463 36.5291 492.481Z" fill="#E4C239"/>
<path d="M221.117 538.892C223.772 538.1 226.5 537.234 229.246 536.294C228.841 537.492 228.454 538.671 228.085 539.831C227.366 542.006 225.615 543.682 223.403 544.272C220.712 544.99 218.094 545.617 215.495 546.188C215.845 545.193 216.214 544.18 216.564 543.148C217.32 541.084 219.016 539.518 221.117 538.892Z" fill="#E3B935"/>
<path d="M259.33 555.363C261.616 554.718 263.957 554.036 266.317 553.318C266.187 553.815 266.04 554.313 265.911 554.81C265.413 556.671 263.957 558.127 262.114 558.606C259.791 559.214 257.487 559.785 255.238 560.319C255.349 559.914 255.459 559.527 255.57 559.122C256.086 557.298 257.506 555.879 259.33 555.363Z" fill="#E3B935"/>
<path d="M89.6528 512.103C90.8878 512.84 92.1228 513.558 93.3947 514.258C92.7311 514.608 92.0675 514.959 91.4224 515.309C90.5007 515.788 89.3948 515.769 88.51 515.235C87.2381 514.461 85.9662 513.687 84.6943 512.877C85.4317 512.563 86.1874 512.25 86.98 511.919C87.8464 511.55 88.8418 511.605 89.6528 512.103Z" fill="#E9CF4F"/>
<path d="M71.1655 506.649C71.9949 506.447 72.8797 506.612 73.5802 507.091C74.7968 507.939 76.0133 508.786 77.2299 509.597C76.6585 509.781 76.1055 509.984 75.571 510.168C74.6862 510.482 73.6908 510.334 72.9166 509.8C71.6631 508.934 70.4097 508.031 69.1562 507.128C69.8014 506.981 70.4834 506.815 71.1655 506.649Z" fill="#E3B935"/>
<path d="M250.407 548.417C253.375 547.514 256.398 546.519 259.494 545.451C259.199 546.519 258.905 547.569 258.628 548.62C258.167 550.296 256.858 551.641 255.181 552.12C252.14 553.005 249.154 553.815 246.223 554.571C246.499 553.668 246.757 552.747 247.034 551.826C247.513 550.186 248.766 548.914 250.407 548.417Z" fill="#E9CF4F"/>
<path d="M45.5794 496.055C46.2983 496.037 47.0172 496.276 47.5701 496.719C48.9526 497.824 50.3351 498.929 51.6991 500.017C51.2199 500.072 50.7591 500.109 50.2982 500.164C49.5056 500.238 48.713 500.017 48.0863 499.519C46.6854 498.395 45.266 497.253 43.8467 496.11C44.4365 496.092 45.008 496.074 45.5794 496.055Z" fill="#E3B935"/>
<path d="M198.151 527.671C201.211 526.824 204.326 525.847 207.496 524.779C206.648 526.934 205.819 529.035 205.008 531.08C204.436 532.517 203.22 533.604 201.708 533.991C198.612 534.765 195.57 535.446 192.584 536.018C193.358 534.212 194.151 532.37 194.962 530.453C195.552 529.09 196.731 528.077 198.151 527.671Z" fill="#E3B935"/>
<path d="M215.569 531.448C218.795 530.398 222.076 529.219 225.449 527.929C224.767 529.919 224.103 531.854 223.44 533.751C222.887 535.354 221.615 536.607 219.993 537.086C216.712 538.081 213.486 538.965 210.334 539.758C210.942 538.099 211.587 536.404 212.233 534.654C212.804 533.106 214.021 531.946 215.569 531.448Z" fill="#E4C239"/>
<path d="M243.734 541.066C246.702 540.052 249.707 538.947 252.785 537.768C252.435 538.947 252.103 540.108 251.771 541.268C251.181 543.314 249.615 544.898 247.587 545.543C244.619 546.501 241.707 547.367 238.85 548.159C239.145 547.183 239.458 546.169 239.771 545.174C240.38 543.24 241.836 541.711 243.734 541.066Z" fill="#E9CF4F"/>
<path d="M53.8558 498.635C55.0723 498.543 56.2705 498.911 57.2474 499.648C58.6668 500.754 60.0861 501.841 61.5055 502.909C61.0262 502.983 60.5469 503.075 60.0861 503.149C58.7589 503.37 57.3949 503.038 56.3258 502.209C54.8696 501.085 53.4318 499.961 51.9756 498.801C52.5839 498.745 53.2106 498.69 53.8558 498.635Z" fill="#EEDC81"/>
<path d="M-3.35936 467.811C-2.9354 467.921 -2.54831 468.124 -2.21652 468.419C-1.11053 469.395 -0.00455379 470.353 1.06456 471.293C0.898664 471.256 0.732768 471.219 0.566871 471.182C0.124478 471.072 -0.29948 470.869 -0.631275 470.556C-1.71882 469.598 -2.8248 468.621 -3.94922 467.645C-3.76489 467.719 -3.56213 467.756 -3.35936 467.811Z" fill="#E9D157"/>
<path d="M-0.207143 473.099C0.124651 473.191 0.41958 473.357 0.677642 473.578C1.54399 474.352 2.41035 475.107 3.25826 475.844C3.12923 475.807 3.0002 475.789 2.87117 475.752C2.52094 475.66 2.20758 475.494 1.93109 475.254C1.06473 474.499 0.198383 473.744 -0.667969 472.97C-0.520505 473.007 -0.37304 473.062 -0.207143 473.099Z" fill="#E9D157"/>
<path d="M7.3689 484.153C7.4795 484.19 7.5901 484.245 7.68226 484.319C7.99562 484.595 8.36428 484.909 8.65921 485.185C8.60391 485.167 8.56705 485.167 8.51175 485.148C8.38272 485.111 8.27212 485.056 8.17995 484.964C7.86659 484.687 7.49793 484.374 7.18457 484.098C7.2583 484.135 7.3136 484.135 7.3689 484.153Z" fill="#E9D157"/>
<path d="M7.38625 474.204C7.69962 474.278 8.01298 474.425 8.25261 474.646C9.54292 475.77 10.8148 476.857 12.0682 477.944C11.7365 477.889 11.4047 477.834 11.0913 477.778C10.7411 477.723 10.4277 477.557 10.1696 477.336C8.89776 476.231 7.60745 475.107 6.28027 473.965C6.6305 474.038 6.99916 474.112 7.38625 474.204Z" fill="#E3B935"/>
<path d="M3.60889 478.681C3.71949 478.7 3.81166 478.755 3.90382 478.829C4.34622 479.215 5.2863 480.044 5.71026 480.413C5.59966 480.395 5.48906 480.376 5.37846 480.358C5.26786 480.339 5.15727 480.284 5.0651 480.21C4.64114 479.842 3.68263 478.994 3.24023 478.607C3.35083 478.626 3.47986 478.644 3.60889 478.681Z" fill="#E3B935"/>
<path d="M82.6309 507.699C83.8843 508.51 85.1378 509.321 86.4096 510.095C85.617 510.408 84.8428 510.721 84.1055 511.034C83.2023 511.403 82.1885 511.311 81.3774 510.776C80.0687 509.929 78.7599 509.044 77.4512 508.16C78.336 507.902 79.2207 507.626 80.1608 507.349C80.9903 507.091 81.8935 507.22 82.6309 507.699Z" fill="#E9CF4F"/>
<path d="M238.297 533.438C240.914 532.425 243.587 531.338 246.315 530.177C245.965 531.338 245.633 532.462 245.283 533.586C244.601 535.87 242.832 537.694 240.583 538.487C238.002 539.389 235.458 540.218 232.988 540.974C233.302 540.034 233.597 539.076 233.91 538.1C234.61 535.962 236.214 534.249 238.297 533.438Z" fill="#E4C239"/>
<path d="M17.2859 479.768C17.8389 479.86 18.3735 480.118 18.8159 480.487C20.0877 481.574 21.3412 482.642 22.5762 483.693C22.2813 483.656 21.9863 483.619 21.6914 483.582C21.0831 483.508 20.4933 483.25 20.0324 482.845C18.779 481.777 17.5071 480.671 16.2168 479.566C16.5486 479.639 16.9173 479.695 17.2859 479.768Z" fill="#E4C239"/>
<path d="M211.366 523.618C214.758 522.383 218.223 520.983 221.781 519.436C220.859 521.997 219.975 524.465 219.108 526.861C218.703 527.984 217.818 528.869 216.693 529.256C213.21 530.453 209.818 531.503 206.5 532.425C207.329 530.324 208.177 528.15 209.044 525.902C209.468 524.834 210.316 524.023 211.366 523.618Z" fill="#E4C239"/>
<path d="M26.8517 484.466C27.6259 484.559 28.3817 484.89 28.9715 485.406C30.3724 486.585 31.7733 487.764 33.1374 488.907C32.7503 488.888 32.3816 488.851 32.013 488.833C31.1466 488.778 30.3171 488.446 29.6535 487.893C28.2526 486.714 26.8333 485.517 25.3955 484.282C25.8748 484.356 26.354 484.411 26.8517 484.466Z" fill="#E9D157"/>
<path d="M66.2999 501.638C67.6824 502.67 69.0833 503.683 70.4842 504.696C69.7285 504.862 68.9911 505.028 68.2722 505.194C67.2584 505.433 66.1893 505.212 65.3414 504.586C63.8852 503.517 62.4474 502.43 60.9912 501.325C61.8576 501.196 62.7608 501.085 63.6824 500.956C64.6041 500.827 65.5626 501.067 66.2999 501.638Z" fill="#E9D157"/>
<path d="M305.062 562.125C307.532 561.406 310.057 560.651 312.62 559.859C312.509 560.411 312.38 560.946 312.269 561.498C312.03 562.585 311.2 563.451 310.131 563.765C307.587 564.483 305.099 565.165 302.629 565.81C302.74 565.331 302.85 564.852 302.961 564.354C303.2 563.286 304.011 562.438 305.062 562.125Z" fill="#E9D157"/>
<path d="M293.54 555.013C296.084 554.202 298.664 553.336 301.3 552.434C301.19 552.876 301.098 553.336 300.987 553.779C300.563 555.639 299.181 557.132 297.356 557.685C294.757 558.477 292.213 559.232 289.706 559.951C289.798 559.582 289.872 559.232 289.964 558.864C290.388 557.04 291.752 555.584 293.54 555.013Z" fill="#E3B935"/>
<path d="M317.098 570.839C317.319 569.845 318.057 569.052 319.052 568.794C321.246 568.223 323.495 567.615 325.762 566.989C325.688 567.357 325.614 567.726 325.541 568.076C325.319 569.089 324.545 569.9 323.55 570.158C321.301 570.729 319.089 571.282 316.896 571.816C316.969 571.503 317.025 571.171 317.098 570.839Z" fill="#E9D157"/>
<path d="M282.204 548.03C285.227 546.962 288.324 545.819 291.476 544.603C291.292 545.414 291.089 546.206 290.905 547.017C290.444 548.97 288.988 550.573 287.071 551.218C283.974 552.268 280.932 553.263 277.946 554.184C278.112 553.502 278.278 552.821 278.462 552.139C278.96 550.204 280.343 548.675 282.204 548.03Z" fill="#E9D157"/>
<path d="M232.141 525.276C235.552 523.839 239.035 522.255 242.575 520.56C241.929 522.605 241.303 524.613 240.694 526.566C239.994 528.758 238.372 530.527 236.234 531.375C232.768 532.72 229.377 533.954 226.059 535.06C226.63 533.383 227.22 531.651 227.81 529.901C228.51 527.8 230.095 526.124 232.141 525.276Z" fill="#E4C239"/>
<path d="M36.9352 488.63C37.562 488.686 38.1702 488.925 38.6495 489.33C40.2716 490.675 41.8753 492.002 43.479 493.292C42.7785 493.292 42.0965 493.292 41.4145 493.273C40.714 493.273 40.0504 493.034 39.5159 492.592C37.8569 491.228 36.1979 489.846 34.5205 488.446C35.2947 488.501 36.1057 488.575 36.9352 488.63Z" fill="#E9D157"/>
<path d="M333.577 577.122C333.743 576.33 334.333 575.722 335.107 575.538C336.785 575.132 338.499 574.727 340.213 574.322C340.176 574.524 340.14 574.708 340.103 574.911C339.955 575.703 339.329 576.33 338.554 576.514C336.84 576.901 335.144 577.288 333.467 577.675C333.504 577.472 333.541 577.288 333.577 577.122Z" fill="#E9D157"/>
<path d="M352.636 582.797C352.673 582.613 352.821 582.447 353.024 582.41C354.111 582.189 355.401 581.894 356.507 581.655C356.452 581.894 356.397 582.152 356.341 582.392C356.305 582.594 356.139 582.742 355.936 582.778C354.83 583.018 353.54 583.276 352.452 583.497C352.526 583.258 352.581 583.036 352.636 582.797Z" fill="#E9D157"/>
<path d="M272.177 541.139C275.348 539.905 278.592 538.597 281.91 537.178C281.615 538.394 281.302 539.61 281.007 540.789C280.62 542.337 279.495 543.59 278.002 544.161C274.74 545.377 271.532 546.501 268.417 547.551C268.693 546.519 268.97 545.469 269.246 544.419C269.652 542.908 270.721 541.711 272.177 541.139Z" fill="#EEDC81"/>
<path d="M263.735 533.42C267.237 531.927 270.813 530.324 274.5 528.593C274.094 530.14 273.689 531.651 273.302 533.143C272.786 535.115 271.385 536.736 269.486 537.492C265.892 538.947 262.371 540.31 258.942 541.545C259.311 540.255 259.661 538.965 260.03 537.639C260.564 535.741 261.929 534.194 263.735 533.42Z" fill="#E9D157"/>
<path d="M75.7548 503.075C76.9898 503.941 78.2248 504.788 79.4782 505.636C78.5566 505.894 77.6534 506.17 76.787 506.41C75.9575 506.649 75.0727 506.502 74.3723 506.004C73.0451 505.083 71.7364 504.144 70.4092 503.186C71.423 503.001 72.4737 502.799 73.5612 502.596C74.317 502.467 75.1096 502.633 75.7548 503.075Z" fill="#E4C239"/>
<path d="M46.1519 492.113C47.221 492.149 48.2717 492.536 49.1012 493.2C50.6127 494.434 52.1242 495.65 53.6357 496.829C52.9537 496.866 52.2901 496.903 51.6265 496.94C50.4284 496.995 49.2487 496.627 48.3086 495.871C46.7418 494.618 45.1565 493.329 43.5713 492.039C44.4192 492.057 45.2856 492.094 46.1519 492.113Z" fill="#EEDC81"/>
<path d="M226.924 517.372C230.464 515.733 234.076 513.909 237.781 511.919C236.897 514.609 236.049 517.225 235.201 519.749C234.758 521.112 233.745 522.218 232.436 522.789C228.823 524.373 225.284 525.792 221.837 527.063C222.63 524.871 223.422 522.586 224.27 520.246C224.731 518.975 225.689 517.943 226.924 517.372Z" fill="#E4C239"/>
<path d="M257.505 525C260.749 523.452 264.067 521.813 267.459 520.025C267.072 521.444 266.685 522.863 266.298 524.245C265.487 527.192 263.385 529.606 260.583 530.84C257.376 532.241 254.242 533.53 251.183 534.728C251.514 533.586 251.865 532.406 252.215 531.227C253.007 528.501 254.925 526.234 257.505 525Z" fill="#E9D157"/>
<path d="M58.6678 495.797C60.1793 496.995 61.6909 498.156 63.2024 499.316C62.1332 499.427 61.0826 499.556 60.0503 499.666C59.3683 499.74 58.7047 499.556 58.1701 499.132C56.548 497.879 54.9444 496.608 53.3223 495.318C54.502 495.3 55.7186 495.263 56.972 495.245C57.5803 495.226 58.1886 495.429 58.6678 495.797Z" fill="#E4C239"/>
<path d="M5.39602 469.617C6.20707 469.838 6.96283 470.243 7.58955 470.796C8.93516 471.975 10.2623 473.117 11.5711 474.26C11.313 474.204 11.055 474.149 10.7969 474.094C9.89368 473.891 9.06419 473.467 8.36374 472.859C7.01813 471.699 5.67252 470.519 4.29004 469.322C4.6587 469.414 5.02736 469.506 5.39602 469.617Z" fill="#E4C239"/>
<path d="M250.205 517.169C253.763 515.327 257.413 513.337 261.155 511.163C260.51 513.374 259.901 515.548 259.293 517.667C258.703 519.749 257.247 521.518 255.293 522.457C251.643 524.226 248.104 525.829 244.639 527.303C245.192 525.497 245.763 523.636 246.353 521.757C246.98 519.767 248.362 518.127 250.205 517.169Z" fill="#E4C239"/>
<path d="M17.0644 475.623C17.4883 475.715 17.8939 475.918 18.2257 476.212C19.9768 477.723 21.7095 479.216 23.4238 480.671C22.6865 480.542 21.9491 480.432 21.2302 480.303C20.751 480.229 20.3086 480.008 19.9399 479.695C18.1704 478.184 16.3639 476.636 14.5391 475.052C15.3685 475.236 16.2165 475.42 17.0644 475.623Z" fill="#E3B935"/>
<path d="M12.695 484.19C12.8056 484.209 12.9162 484.264 13.0083 484.338C13.4691 484.743 14.8516 485.94 15.3124 486.327C15.1097 486.29 14.9254 486.254 14.741 486.235C14.612 486.217 14.5014 486.162 14.3908 486.069C13.93 485.664 12.5291 484.448 12.0498 484.043C12.2526 484.08 12.4738 484.135 12.695 484.19Z" fill="#E3B935"/>
<path d="M11.516 489.717C11.5344 489.717 11.5344 489.717 11.5344 489.736C11.5713 489.773 11.7188 489.902 11.7556 489.938C11.7372 489.938 11.7188 489.938 11.7003 489.938C11.6819 489.938 11.6819 489.938 11.6635 489.92C11.6266 489.883 11.4791 489.754 11.4238 489.717C11.4791 489.717 11.4976 489.717 11.516 489.717Z" fill="#E3B935"/>
<path d="M69.0822 498.082C70.4278 499.095 71.7734 500.09 73.1374 501.067C71.9209 501.269 70.7411 501.472 69.6167 501.675C68.8425 501.804 68.0684 501.619 67.4416 501.159C65.967 500.072 64.4923 498.948 63.0361 497.824C64.3633 497.732 65.7274 497.621 67.1651 497.529C67.8287 497.456 68.5292 497.658 69.0822 498.082Z" fill="#EEDC81"/>
<path d="M27.8102 480.929C28.437 481.04 29.0453 481.334 29.5429 481.74C31.165 483.121 32.7687 484.466 34.354 485.793C33.5798 485.701 32.824 485.627 32.0867 485.535C31.3678 485.461 30.6858 485.167 30.1328 484.688C28.4738 483.287 26.7964 481.869 25.1006 480.413C25.9854 480.597 26.8886 480.763 27.8102 480.929Z" fill="#E4C239"/>
<path d="M310.849 536.994C313.927 535.649 317.079 534.23 320.305 532.756C320.176 533.383 320.028 534.009 319.899 534.636C319.346 537.178 317.577 539.297 315.162 540.292C312.028 541.582 308.969 542.798 305.982 543.958C306.093 543.479 306.204 542.982 306.314 542.484C306.867 540.034 308.545 537.989 310.849 536.994Z" fill="#E4C239"/>
<path d="M323.514 544.143C326.869 542.816 330.297 541.416 333.799 539.96C333.652 540.642 333.523 541.305 333.375 541.969C332.933 544.106 331.422 545.875 329.394 546.648C325.929 547.957 322.555 549.209 319.237 550.407C319.366 549.854 319.477 549.302 319.606 548.749C320.048 546.667 321.523 544.935 323.514 544.143Z" fill="#E9CF4F"/>
<path d="M244.141 508.473C248.14 506.207 252.233 503.738 256.454 501.03C255.532 504.125 254.647 507.11 253.763 510.002C253.246 511.716 252.085 513.153 250.5 514C246.389 516.193 242.389 518.183 238.5 519.988C239.311 517.501 240.141 514.94 241.007 512.305C241.541 510.666 242.647 509.302 244.141 508.473Z" fill="#E4C239"/>
<path d="M297.155 530.454C301.099 528.611 305.154 526.621 309.32 524.502C308.933 526.161 308.565 527.782 308.214 529.385C307.883 530.859 306.869 532.093 305.486 532.72C301.376 534.599 297.376 536.331 293.486 537.934C293.818 536.552 294.168 535.133 294.519 533.696C294.85 532.278 295.809 531.08 297.155 530.454Z" fill="#E9D157"/>
<path d="M339.439 551.033C342.075 550.094 344.748 549.099 347.476 548.067C347.402 548.399 347.347 548.73 347.273 549.062C346.923 550.849 345.651 552.305 343.937 552.913C341.246 553.852 338.591 554.755 335.992 555.621C336.047 555.363 336.103 555.105 336.158 554.847C336.508 553.078 337.762 551.641 339.439 551.033Z" fill="#E4C239"/>
<path d="M287.532 522.605C291.256 520.688 295.09 518.625 299.035 516.414C298.629 518.128 298.223 519.823 297.818 521.481C297.376 523.342 296.122 524.908 294.408 525.755C290.537 527.653 286.777 529.422 283.108 531.061C283.459 529.643 283.827 528.206 284.196 526.75C284.657 524.963 285.873 523.452 287.532 522.605Z" fill="#E9CF4F"/>
<path d="M38.3355 485.424C39.2387 485.553 40.1235 485.922 40.824 486.511C42.2986 487.746 43.7732 488.962 45.2295 490.159C44.4 490.123 43.6074 490.067 42.8147 490.03C41.7641 489.975 40.7871 489.588 39.9761 488.925C38.4277 487.635 36.8793 486.346 35.3125 485.019C36.2894 485.148 37.3033 485.295 38.3355 485.424Z" fill="#E4C239"/>
<path d="M356.324 557.814C359.052 556.929 361.835 555.99 364.655 555.031C364.582 555.418 364.508 555.787 364.434 556.174C364.176 557.537 363.181 558.661 361.854 559.085C359.052 559.988 356.287 560.853 353.577 561.683C353.651 561.351 353.706 561.038 353.761 560.706C354.056 559.343 355.015 558.237 356.324 557.814Z" fill="#E4C239"/>
<path d="M279.865 513.393C283.588 511.274 287.404 509.008 291.312 506.594C290.906 508.197 290.519 509.781 290.132 511.347C289.247 514.866 286.906 517.87 283.68 519.565C279.975 521.518 276.344 523.342 272.823 525.037C273.155 523.765 273.505 522.494 273.855 521.186C274.722 517.888 276.897 515.088 279.865 513.393Z" fill="#E3B935"/>
<path d="M49.7644 489.459C50.3911 489.515 50.9994 489.754 51.4786 490.16C52.8611 491.283 54.2436 492.407 55.6261 493.513C54.5017 493.513 53.4141 493.513 52.345 493.513C51.6261 493.513 50.9441 493.273 50.3911 492.831C48.898 491.615 47.3865 490.381 45.875 489.146C47.1284 489.22 48.4188 489.349 49.7644 489.459Z" fill="#EEDC81"/>
<path d="M270.796 505.415C275.072 502.78 279.477 499.924 283.994 496.829C283.293 499.482 282.611 502.08 281.966 504.623C281.265 507.276 279.533 509.542 277.155 510.924C272.823 513.429 268.62 515.732 264.528 517.851C265.118 515.732 265.745 513.558 266.372 511.329C267.054 508.86 268.62 506.741 270.796 505.415Z" fill="#E9CF4F"/>
<path d="M62.6304 493.163C63.8838 494.158 65.1557 495.171 66.446 496.147C65.0636 496.24 63.7179 496.313 62.4276 496.387C61.7272 496.424 61.0452 496.221 60.4922 495.779C59.0544 494.655 57.6166 493.513 56.1973 492.352C57.7088 492.407 59.294 492.463 60.9346 492.518C61.5613 492.555 62.1511 492.776 62.6304 493.163Z" fill="#E3B935"/>
<path d="M263.993 496.092C268.509 493.034 273.172 489.717 277.965 486.106C277.025 489.552 276.122 492.905 275.237 496.147C274.555 498.616 273.007 500.754 270.831 502.135C266.186 505.083 261.67 507.773 257.283 510.242C258.094 507.515 258.942 504.696 259.79 501.785C260.491 499.445 261.984 497.437 263.993 496.092Z" fill="#E4C239"/>
<path d="M5.72747 466.024C6.33576 466.226 6.90718 466.558 7.38644 466.963C9.00855 468.382 10.6307 469.764 12.1975 471.127C11.5339 470.943 10.8887 470.777 10.262 470.611C9.56154 470.427 8.93481 470.077 8.38182 469.616C6.74128 468.198 5.06388 466.742 3.34961 465.268C4.14223 465.508 4.93485 465.766 5.72747 466.024Z" fill="#E9D157"/>
<path d="M18.2438 472.749C18.8521 472.914 19.4236 473.228 19.8844 473.633C21.3959 474.923 22.889 476.212 24.3636 477.465C23.571 477.281 22.7784 477.115 22.0226 476.949C21.3222 476.802 20.6586 476.47 20.124 476.01C18.5756 474.683 16.9904 473.32 15.3867 471.938C16.3084 472.196 17.2669 472.472 18.2438 472.749Z" fill="#E9D157"/>
<path d="M328.398 514.369C333.006 511.808 337.743 509.081 342.61 506.17C342.278 507.828 341.928 509.468 341.596 511.089C341.08 513.595 339.494 515.751 337.246 516.948C332.435 519.509 327.771 521.923 323.255 524.171C323.55 522.826 323.845 521.444 324.14 520.062C324.674 517.667 326.223 515.585 328.398 514.369Z" fill="#EEDC81"/>
<path d="M343.586 521.388C347.936 519.178 352.397 516.819 356.968 514.332C356.729 515.511 356.507 516.69 356.286 517.851C355.789 520.43 354.093 522.623 351.733 523.784C347.217 526.013 342.83 528.113 338.554 530.085C338.756 529.127 338.941 528.169 339.144 527.211C339.66 524.686 341.3 522.549 343.586 521.388Z" fill="#E4C239"/>
<path d="M32.5841 479.547C34.0956 480.837 35.6071 482.108 37.1002 483.379C36.1417 483.232 35.2201 483.085 34.2984 482.937C33.0634 482.735 31.9205 482.219 30.962 481.408C29.3584 480.045 27.7362 478.663 26.0957 477.263C27.2754 477.539 28.492 477.815 29.727 478.11C30.7777 478.331 31.7731 478.847 32.5841 479.547Z" fill="#E3B935"/>
<path d="M314.167 507.036C319.752 503.664 325.522 500.035 331.494 496.129C330.923 498.8 330.351 501.417 329.798 503.996C329.282 506.41 327.771 508.51 325.633 509.744C319.752 513.153 314.075 516.322 308.582 519.251C309.08 517.077 309.596 514.848 310.112 512.6C310.647 510.279 312.121 508.271 314.167 507.036Z" fill="#E4C239"/>
<path d="M360.213 528.482C364.416 526.511 368.748 524.429 373.19 522.255C372.987 523.323 372.803 524.392 372.6 525.46C372.25 527.321 371.015 528.924 369.282 529.716C364.877 531.706 360.6 533.604 356.435 535.41C356.619 534.507 356.785 533.586 356.969 532.664C357.319 530.803 358.536 529.274 360.213 528.482Z" fill="#E4C239"/>
<path d="M304.029 498.856C308.84 495.687 313.817 492.278 318.942 488.594C318.333 491.302 317.725 493.937 317.154 496.534C316.656 498.764 315.292 500.698 313.357 501.914C308.306 505.083 303.44 508.031 298.721 510.721C299.237 508.547 299.79 506.336 300.343 504.07C300.877 501.914 302.186 500.072 304.029 498.856Z" fill="#E9D157"/>
<path d="M44.3448 484.006C45.8747 485.295 47.4046 486.585 48.953 487.856C47.4415 487.691 45.9853 487.543 44.5844 487.396C43.8471 487.322 43.1466 487.027 42.5752 486.548C40.8609 485.111 39.1282 483.656 37.3955 482.2C39.0729 482.513 40.824 482.845 42.6121 483.177C43.2388 483.306 43.8471 483.6 44.3448 484.006Z" fill="#EEDC81"/>
<path d="M294.647 489.183C299.993 485.332 305.504 481.187 311.2 476.691C310.407 479.989 309.652 483.214 308.914 486.383C308.103 489.846 306.002 492.868 303.071 494.858C297.615 498.561 292.325 501.969 287.219 505.138C287.882 502.541 288.564 499.869 289.265 497.142C290.057 493.936 291.956 491.118 294.647 489.183Z" fill="#E9CF4F"/>
<path d="M57.5986 488.741C58.6861 489.644 59.7921 490.547 60.9165 491.468C59.4972 491.394 58.1147 491.339 56.7691 491.265C55.2023 491.191 53.7092 490.62 52.4926 489.625C51.1839 488.538 49.8751 487.451 48.5664 486.364C50.2991 486.604 52.0871 486.862 53.9304 487.12C55.276 487.304 56.5479 487.875 57.5986 488.741Z" fill="#E9D157"/>
<path d="M286.388 479.694C291.752 475.475 297.282 470.888 303.015 465.95C302.02 470.003 301.043 473.946 300.084 477.778C299.31 480.947 297.43 483.729 294.794 485.664C289.338 489.699 284.047 493.402 278.941 496.792C279.789 493.623 280.674 490.362 281.577 486.991C282.37 484.098 284.029 481.537 286.388 479.694Z" fill="#E9CF4F"/>
<path d="M23.8666 471.975C25.5809 473.449 27.2952 474.904 28.991 476.36C27.6454 476.01 26.3182 475.66 25.0463 475.328C23.8298 475.015 22.7053 474.425 21.7653 473.596C19.9035 471.993 18.0049 470.372 16.0879 468.714C17.71 469.266 19.3874 469.819 21.1201 470.39C22.0971 470.74 23.0556 471.275 23.8666 471.975Z" fill="#E9D157"/>
<path d="M349.726 484.043C355.79 479.787 362.058 475.254 368.546 470.39C368.104 472.748 367.643 475.088 367.201 477.373C366.389 481.592 363.901 485.295 360.325 487.691C354.039 491.891 347.956 495.779 342.095 499.427C342.463 497.603 342.85 495.779 343.238 493.918C344.067 489.938 346.39 486.401 349.726 484.043Z" fill="#E3B935"/>
<path d="M364.121 492.463C371.015 488.041 378.167 483.306 385.596 478.239C385.098 480.929 384.619 483.6 384.139 486.217C383.623 489.091 381.891 491.633 379.402 493.163C372.066 497.714 365.006 501.951 358.204 505.875C358.628 503.683 359.052 501.472 359.513 499.206C360.047 496.424 361.725 493.992 364.121 492.463Z" fill="#E3B935"/>
<path d="M334.721 476.894C340.878 472.233 347.256 467.185 353.891 461.731C353.209 465.121 352.527 468.456 351.864 471.698C351.255 474.702 349.56 477.373 347.071 479.179C340.564 483.914 334.297 488.28 328.27 492.278C328.859 489.607 329.449 486.88 330.058 484.116C330.703 481.242 332.362 478.681 334.721 476.894Z" fill="#E9CF4F"/>
<path d="M37.5436 478.129C39.0551 479.418 40.5482 480.708 42.0782 481.998C40.3086 481.629 38.5759 481.261 36.9169 480.929C35.9215 480.726 35.0183 480.284 34.2441 479.621C32.4746 478.11 30.705 476.599 28.917 475.07C30.9631 475.66 33.0829 476.268 35.2948 476.913C36.1243 477.152 36.8985 477.576 37.5436 478.129Z" fill="#E9D157"/>
<path d="M324.158 466.687C329.927 461.897 335.918 456.719 342.093 451.155C341.374 454.508 340.674 457.788 339.992 460.994C339.015 465.582 336.453 469.69 332.748 472.564C326.849 477.152 321.153 481.408 315.66 485.351C316.25 482.79 316.858 480.174 317.485 477.52C318.462 473.264 320.803 469.469 324.158 466.687Z" fill="#E3B935"/>
<path d="M312.158 458.378C318.425 452.74 324.95 446.605 331.734 439.917C330.591 444.983 329.522 449.884 328.452 454.601C327.863 457.272 326.406 459.667 324.324 461.454C317.724 467.092 311.365 472.233 305.282 476.931C306.241 473.043 307.218 469.008 308.25 464.845C308.877 462.357 310.241 460.091 312.158 458.378Z" fill="#E3B935"/>
<path d="M48.5292 482.366C49.6536 482.642 50.7043 483.177 51.5706 483.932C52.4554 484.687 53.3586 485.461 54.2803 486.235C52.6582 485.996 51.0729 485.738 49.5614 485.517C48.2343 485.314 46.9624 484.743 45.9486 483.877C44.7689 482.882 43.6076 481.887 42.4463 480.892C44.4002 481.371 46.4278 481.85 48.5292 482.366Z" fill="#E9CF4F"/>
<path d="M354.481 439.401C361.375 432.897 368.582 425.877 376.085 418.268C375.311 422.321 374.555 426.283 373.817 430.152C372.841 435.292 370.168 439.972 366.26 443.454C359.071 449.829 352.177 455.688 345.578 461.104C346.205 458.083 346.85 454.988 347.514 451.837C348.509 447.065 350.942 442.735 354.481 439.401Z" fill="#E9D157"/>
<path d="M342.906 427.849C351.624 418.95 360.73 409.24 370.26 398.646C368.915 405.463 367.569 412.04 366.297 418.415C365.339 423.15 362.961 427.462 359.495 430.815C350.334 439.658 341.578 447.765 333.191 455.135C334.334 450.031 335.496 444.78 336.694 439.345C337.634 435.016 339.79 431.017 342.906 427.849Z" fill="#E4C239"/>
<path d="M44.2533 478.018C45.1565 478.331 45.986 478.81 46.7048 479.437C47.6081 480.229 48.5481 481.039 49.5067 481.887C46.9998 481.242 44.5851 480.634 42.2625 480.045C41.1749 479.768 40.1611 479.234 39.3132 478.515C37.8939 477.299 36.5114 476.102 35.1289 474.923C38.0413 475.899 41.0828 476.949 44.2533 478.018Z" fill="#E3B935"/>
</g>
</svg>
